<?xml version="1.0" standalone="no"?>
<!DOCTYPE svg PUBLIC "-//W3C//DTD SVG 20010904//EN"
 "http://www.w3.org/TR/2001/REC-SVG-20010904/DTD/svg10.dtd">
<svg version="1.0" xmlns="http://www.w3.org/2000/svg"
 width="242.000000pt" height="242.000000pt" viewBox="0 0 242.000000 242.000000"
 preserveAspectRatio="xMidYMid meet">
<metadata>
Created by potrace 1.11, written by Peter Selinger 2001-2013
</metadata>
<g transform="translate(0.000000,242.000000) scale(0.100000,-0.100000)"
fill="#000000" stroke="none">
<path d="M413 2205 c0 -8 4 -12 9 -9 5 3 6 10 3 15 -9 13 -12 11 -12 -6z"/>
<path d="M373 2175 c0 -8 4 -12 9 -9 5 3 6 10 3 15 -9 13 -12 11 -12 -6z"/>
<path d="M370 2138 c0 -4 4 -8 9 -8 6 0 12 4 15 8 3 5 -1 9 -9 9 -8 0 -15 -4
-15 -9z"/>
<path d="M330 2131 c0 -6 4 -13 10 -16 6 -3 7 1 4 9 -7 18 -14 21 -14 7z"/>
<path d="M510 2136 c0 -2 8 -10 18 -17 15 -13 16 -12 3 4 -13 16 -21 21 -21
13z"/>
<path d="M690 2119 c0 -5 5 -7 10 -4 6 3 10 8 10 11 0 2 -4 4 -10 4 -5 0 -10
-5 -10 -11z"/>
<path d="M356 2094 c-7 -25 -21 -26 -21 -1 0 5 -6 11 -13 13 -7 1 -8 0 -2 -3
6 -3 4 -10 -5 -19 -8 -8 -11 -22 -8 -31 5 -12 3 -14 -7 -8 -8 5 -11 4 -6 -3 3
-6 2 -13 -2 -16 -5 -3 -9 -16 -8 -28 1 -13 -1 -25 -5 -28 -3 -3 -10 -16 -14
-30 l-7 -25 24 25 c17 18 22 30 16 42 -5 10 -4 20 4 24 7 5 8 3 3 -5 -6 -10
-3 -11 11 -3 11 5 27 8 37 7 11 -2 22 6 29 21 6 13 15 24 20 24 4 0 8 5 8 11
0 5 -10 3 -22 -5 -38 -27 -41 -22 -22 42 3 12 4 22 1 22 -3 0 -8 -12 -11 -26z
m-17 -44 c-15 -10 7 -24 26 -16 9 3 12 0 9 -9 -6 -16 -25 -16 -36 0 -5 6 -8 6
-8 -2 0 -6 -9 -11 -20 -10 -19 1 -19 2 2 24 12 13 16 23 9 23 -7 0 -9 5 -6 10
5 8 11 7 21 -1 11 -9 12 -14 3 -19z"/>
<path d="M446 2105 c-3 -8 -1 -15 4 -15 6 0 10 7 10 15 0 8 -2 15 -4 15 -2 0
-6 -7 -10 -15z"/>
<path d="M594 2109 c-3 -6 -2 -15 3 -20 5 -5 9 -1 9 11 0 23 -2 24 -12 9z"/>
<path d="M390 2100 c-8 -5 -10 -10 -5 -10 6 0 17 5 25 10 8 5 11 10 5 10 -5 0
-17 -5 -25 -10z"/>
<path d="M473 2089 c-2 -23 3 -25 10 -4 4 8 3 16 -1 19 -4 3 -9 -4 -9 -15z"/>
<path d="M535 2091 c5 -9 0 -12 -16 -9 -19 2 -25 -2 -27 -19 -4 -26 -17 -30
-26 -8 -3 8 -12 15 -21 15 -8 0 -15 5 -15 10 0 6 -5 10 -11 10 -8 0 -8 -4 0
-14 12 -14 4 -49 -9 -41 -4 3 -15 -6 -24 -19 -13 -21 -13 -24 -1 -22 8 1 22
11 31 22 14 17 15 17 10 1 -3 -11 -2 -16 4 -12 6 3 10 1 10 -4 0 -6 -9 -11
-19 -11 -11 0 -23 -5 -26 -10 -7 -11 30 -8 41 3 4 4 14 1 22 -6 9 -6 13 -7 9
-1 -4 6 2 10 16 9 12 -2 21 -8 19 -14 -1 -8 2 -9 10 -5 8 5 7 1 -2 -11 -13
-17 -13 -18 0 -10 8 5 21 10 28 11 11 2 11 0 0 -14 -11 -13 -11 -14 1 -7 10 5
12 4 7 -4 -4 -6 -3 -17 3 -24 7 -10 4 -13 -12 -14 -12 0 -16 1 -10 4 10 3 10
10 2 24 -5 11 -15 17 -21 13 -5 -4 -14 -1 -18 6 -5 8 -9 7 -13 -4 -6 -15 9
-21 36 -17 12 2 8 -7 -18 -35 -14 -15 -25 -22 -25 -15 0 6 7 14 15 17 22 9 18
24 -5 24 -24 0 -25 8 -5 37 14 20 14 22 -5 20 -11 -1 -19 -6 -16 -12 2 -5 -1
-18 -5 -27 -7 -12 -4 -20 8 -27 10 -6 13 -11 6 -11 -6 0 -22 14 -34 32 -13 17
-18 28 -11 24 12 -7 17 6 6 17 -9 9 -35 -4 -28 -14 3 -5 -3 -6 -12 -2 -13 5
-15 3 -9 -7 6 -10 4 -12 -8 -7 -9 3 -19 2 -22 -3 -4 -6 2 -10 11 -10 10 0 15
-3 11 -6 -3 -4 -14 -4 -23 0 -13 5 -14 9 -4 21 19 23 -4 18 -25 -5 -10 -11
-21 -17 -25 -15 -14 9 -41 -7 -36 -21 3 -7 1 -14 -3 -16 -5 -2 -12 -18 -16
-37 -5 -26 -4 -32 5 -26 9 5 11 4 6 -4 -4 -6 -12 -9 -17 -6 -5 4 -9 0 -10 -7
-1 -22 -6 -42 -32 -129 -14 -46 -28 -96 -31 -111 -3 -14 -8 -33 -11 -41 -6
-15 3 -18 370 -116 44 -12 170 -46 280 -75 285 -77 259 -74 273 -29 27 86 68
264 67 287 0 13 3 22 7 20 4 -3 8 1 9 8 0 7 2 20 4 28 2 8 6 24 9 35 2 11 7
27 10 35 5 13 -1 16 -26 15 -22 0 -33 5 -34 15 -3 32 -5 34 -15 17 -8 -13 -7
-22 1 -33 9 -10 9 -14 1 -14 -6 0 -11 5 -11 10 0 6 -6 10 -14 10 -8 0 -23 13
-32 30 -12 20 -20 26 -26 18 -4 -7 -2 -15 4 -19 13 -8 2 -29 -15 -28 -7 0 -6
3 2 6 11 4 8 10 -10 24 -23 18 -24 18 -5 36 10 10 16 12 12 6 -4 -7 -3 -13 3
-13 14 0 21 14 12 28 -10 17 -51 -14 -51 -39 0 -10 -4 -19 -10 -19 -5 0 -7 6
-4 13 3 8 -3 20 -12 28 -15 12 -16 12 -11 -6 4 -11 3 -26 -2 -34 -7 -11 -15
-6 -39 20 -25 28 -32 31 -45 21 -12 -10 -16 -9 -21 4 -3 9 -1 23 5 30 8 9 8
14 1 14 -6 0 -23 -15 -37 -32 -15 -18 -25 -25 -22 -16 7 19 -19 33 -27 15 -3
-8 -8 -6 -16 6 -6 9 -15 15 -20 12 -5 -3 -11 4 -15 15 -7 22 -30 27 -41 9 -3
-6 -15 -9 -25 -6 -11 3 -24 -2 -30 -11 -10 -15 -10 -15 -5 1 3 9 1 17 -4 17
-5 0 -17 -8 -26 -17 -17 -17 -17 -17 -11 -1 4 11 0 22 -11 28 -16 11 -16 11 1
6 12 -4 21 3 31 27 8 18 15 26 15 20 1 -7 6 -13 12 -13 5 0 7 5 3 12 -4 7 -3
8 5 4 6 -4 8 -12 5 -18 -5 -8 -1 -9 10 -5 10 4 20 7 22 7 12 0 2 17 -11 18 -8
1 -22 3 -30 4 -21 2 -19 11 6 26 17 11 20 11 17 -5 -2 -10 2 -18 7 -18 6 0 17
-4 25 -10 13 -8 13 -7 0 11 -11 15 -11 16 0 7 19 -18 33 -16 26 3 -3 9 -2 12
4 9 6 -4 9 -14 8 -23 -2 -12 3 -16 17 -14 15 2 16 0 7 -6 -11 -7 -10 -10 3
-15 11 -5 14 -3 9 6 -5 9 -4 9 7 0 7 -7 17 -13 23 -13 5 0 1 7 -10 16 -20 16
2 8 24 -9 10 -8 10 -13 0 -26 -12 -14 -11 -14 5 -2 14 11 20 11 34 0 14 -12
16 -12 9 1 -5 10 -3 9 6 -2 13 -15 15 -15 27 4 7 11 8 17 2 14 -7 -5 -8 -1 -4
9 4 13 8 14 14 4 4 -8 3 -20 -4 -29 -11 -13 -10 -13 8 0 19 14 19 14 6 -2 -9
-12 -10 -18 -2 -18 6 0 11 5 11 11 0 5 5 7 11 3 8 -4 7 -9 -2 -16 -11 -8 -11
-9 1 -5 8 2 14 10 12 16 -1 6 3 11 9 11 6 0 8 -8 5 -17 -5 -15 -4 -15 9 1 10
13 15 15 15 6 0 -7 3 -10 7 -7 3 4 11 3 18 -1 6 -4 3 1 -8 10 -17 17 -17 18 1
36 16 16 17 22 5 37 -10 14 -13 15 -15 4 0 -8 -2 -18 -3 -24 -2 -5 -3 -15 -4
-20 0 -6 -10 -11 -20 -12 -13 -1 -18 3 -14 13 3 7 10 11 16 7 6 -3 7 -1 3 6
-4 6 -2 18 4 26 7 8 9 15 4 15 -5 0 -2 5 6 11 12 8 11 9 -5 7 -11 -2 -19 2
-18 9 2 7 -4 10 -12 7 -12 -5 -11 -9 7 -23 15 -12 18 -20 10 -25 -7 -4 -12 -2
-12 3 0 6 -5 11 -11 11 -5 0 -8 -4 -5 -8 2 -4 -5 -14 -16 -21 -18 -11 -20 -11
-14 3 15 38 16 49 3 27 -10 -17 -16 -20 -19 -10 -4 11 -8 12 -19 2 -15 -15
-29 -17 -29 -5 0 5 10 14 23 20 17 8 18 11 5 11 -9 1 -24 -9 -32 -21 -9 -12
-16 -17 -16 -11 0 6 -9 15 -20 18 -11 4 -18 11 -15 16 3 5 -1 6 -9 3 -9 -3
-16 -1 -16 5 0 6 -4 11 -10 11 -5 0 -9 -5 -7 -11 1 -6 -4 -14 -11 -16 -8 -3
-10 1 -6 11 3 9 1 16 -6 16 -6 0 -8 5 -4 12 5 8 3 8 -7 2 -8 -5 -23 -9 -34
-10 -11 -1 -26 -3 -34 -5 -7 -2 -16 2 -18 9 -3 7 -1 12 4 11 20 -3 34 2 28 11
-9 14 8 13 23 -2 6 -6 14 -9 18 -6 3 4 -4 12 -17 18 -19 11 -25 10 -36 -6 -10
-13 -13 -14 -13 -3 -1 8 -7 3 -15 -11 -13 -22 -20 -21 -16 3 1 5 -3 6 -9 2 -5
-3 -10 -2 -10 3 0 5 10 12 22 15 12 4 19 9 16 12 -3 4 -16 1 -28 -5 -15 -8
-25 -8 -34 0 -17 13 -29 -11 -19 -37 6 -16 5 -16 -10 -4 -14 11 -20 11 -32 1
-10 -8 -15 -9 -15 -1 0 6 11 18 25 27 14 9 25 24 25 34 0 13 6 17 19 13 22 -6
37 12 20 23 -8 5 -9 3 -4 -5z m-72 -45 c3 -8 0 -19 -7 -26 -10 -8 -15 -6 -20
6 -7 17 0 34 14 34 4 0 10 -6 13 -14z m87 -41 c22 -23 16 -37 -6 -15 -7 7 -11
7 -11 -3 0 -7 11 -14 24 -15 13 -1 23 4 23 11 0 8 3 8 9 -2 5 -8 14 -10 22 -6
8 5 2 -3 -12 -17 -14 -13 -28 -31 -31 -39 -3 -8 -9 -10 -14 -5 -5 5 -4 11 4
13 6 3 12 9 12 14 0 6 -5 7 -10 4 -6 -4 -9 -3 -8 2 2 4 0 8 -3 8 -3 0 -14 6
-23 14 -12 10 -14 17 -6 25 13 13 13 29 0 21 -5 -3 -10 -1 -10 4 0 18 15 12
40 -14z m104 -24 c3 -4 0 -16 -7 -25 -11 -14 -12 -13 -13 9 -2 24 10 34 20 16z
m27 -15 c-6 -7 -9 -16 -6 -20 3 -3 0 -2 -5 2 -13 11 -2 44 12 36 5 -4 5 -11
-1 -18z m98 -29 c18 -15 43 -18 57 -6 17 14 27 -6 15 -29 -6 -11 -7 -23 -3
-27 4 -5 0 -4 -8 1 -8 4 -22 9 -30 11 -8 1 -22 10 -30 20 -9 12 -27 19 -47 18
-17 0 -30 2 -29 5 2 3 6 13 9 23 6 15 10 16 29 6 13 -6 29 -16 37 -22z m-362
-23 c3 -8 1 -20 -5 -26 -8 -8 -9 -5 -5 11 3 12 1 21 -6 21 -6 0 -11 -10 -12
-22 0 -13 -3 -17 -6 -10 -7 17 4 42 17 42 6 0 13 -7 17 -16z m494 -12 c-6 -11
-9 -21 -8 -23 1 -2 -4 3 -11 11 -10 12 -10 17 4 27 22 16 28 10 15 -15z m-577
0 c3 -5 -1 -9 -9 -9 -8 0 -15 4 -15 9 0 4 4 8 9 8 6 0 12 -4 15 -8z m34 -27
c-3 -3 -9 2 -12 12 -6 14 -5 15 5 6 7 -7 10 -15 7 -18z m-78 0 c-6 -8 -8 -20
-4 -27 5 -10 4 -10 -6 -1 -11 10 -11 15 0 28 7 8 15 15 17 15 3 0 0 -7 -7 -15z
m159 -13 c-1 -15 -2 -15 -6 1 -2 9 -9 14 -15 11 -7 -4 -8 -2 -4 5 10 15 26 4
25 -17z m75 3 c3 -8 1 -15 -4 -15 -6 0 -10 7 -10 15 0 8 2 15 4 15 2 0 6 -7
10 -15z m162 -33 c1 -7 0 -8 -3 -2 -2 5 -9 8 -14 4 -5 -3 -9 0 -9 6 0 15 23 7
26 -8z m-256 4 c0 -2 -6 -9 -14 -15 -11 -9 -16 -9 -22 0 -4 7 -3 9 4 5 6 -3
13 -2 17 4 6 10 15 14 15 6z m75 -6 c-3 -5 -12 -10 -18 -10 -7 0 -6 4 3 10 19
12 23 12 15 0z m38 -10 c3 -11 1 -18 -4 -14 -5 3 -9 12 -9 20 0 20 7 17 13 -6z
m81 4 c3 -8 2 -12 -4 -9 -6 3 -10 10 -10 16 0 14 7 11 14 -7z m30 0 c5 -14 4
-15 -9 -4 -17 14 -19 20 -6 20 5 0 12 -7 15 -16z m-46 -17 c8 -10 6 -13 -7
-13 -11 0 -17 6 -14 13 3 7 6 13 8 13 1 0 7 -6 13 -13z m82 -7 c0 -5 -4 -10
-10 -10 -5 0 -10 5 -10 10 0 6 5 10 10 10 6 0 10 -4 10 -10z m129 -30 c0 -10
-3 -8 -9 5 -5 12 -9 14 -9 6 -1 -8 -3 -12 -6 -9 -3 3 -2 13 1 22 5 14 9 15 15
4 5 -7 8 -20 8 -28z m-92 16 c-3 -7 0 -20 6 -27 10 -11 9 -11 -5 0 -15 11 -15
41 -1 41 3 0 3 -6 0 -14z m24 -9 c-10 -9 -11 -8 -5 6 3 10 9 15 12 12 3 -3 0
-11 -7 -18z m-331 9 c0 -2 -8 -10 -17 -17 -16 -13 -17 -12 -4 4 13 16 21 21
21 13z m450 -6 c0 -5 -4 -10 -10 -10 -5 0 -10 5 -10 10 0 6 5 10 10 10 6 0 10
-4 10 -10z m-220 -19 c0 -6 -4 -12 -8 -15 -5 -3 -9 1 -9 9 0 8 4 15 9 15 4 0
8 -4 8 -9z m195 -1 c3 -5 1 -10 -4 -10 -6 0 -11 5 -11 10 0 6 2 10 4 10 3 0 8
-4 11 -10z m49 2 c2 -4 -5 -9 -17 -9 -17 -2 -19 0 -7 7 18 12 18 12 24 2z
m-107 -15 c0 -8 -6 -14 -14 -14 -9 0 -10 4 -2 14 6 7 12 13 14 13 1 0 2 -6 2
-13z m203 -7 c0 -5 -4 -10 -10 -10 -5 0 -10 5 -10 10 0 6 5 10 10 10 6 0 10
-4 10 -10z m-96 -16 c5 -14 4 -15 -9 -4 -17 14 -19 20 -6 20 5 0 12 -7 15 -16z
m-44 -8 c-7 -7 -13 -7 -20 0 -6 6 -3 10 10 10 13 0 16 -4 10 -10z m200 4 c0
-5 -4 -10 -10 -10 -5 0 -10 5 -10 10 0 6 5 10 10 10 6 0 10 -4 10 -10z m-59
-23 c-10 -9 -11 -8 -5 6 3 10 9 15 12 12 3 -3 0 -11 -7 -18z m-24 -7 c14 -11
21 -20 16 -20 -6 0 -16 7 -23 15 -7 8 -16 12 -21 9 -5 -3 -9 0 -9 5 0 16 9 14
37 -9z m107 5 c-4 -8 -8 -15 -10 -15 -2 0 -4 7 -4 15 0 8 4 15 10 15 5 0 7 -7
4 -15z m81 5 c3 -6 -1 -7 -9 -4 -18 7 -21 14 -7 14 6 0 13 -4 16 -10z m-19
-16 c18 -14 18 -14 -6 -3 -31 14 -36 19 -24 19 6 0 19 -7 30 -16z m-302 -2 c3
-5 -1 -9 -9 -9 -8 0 -12 4 -9 9 3 4 7 8 9 8 2 0 6 -4 9 -8z m36 4 c0 -3 -4 -8
-10 -11 -5 -3 -10 -1 -10 4 0 6 5 11 10 11 6 0 10 -2 10 -4z m171 -13 c13 -16
12 -17 -3 -4 -17 13 -22 21 -14 21 2 0 10 -8 17 -17z m-91 -7 c0 -3 -4 -8 -10
-11 -5 -3 -10 -1 -10 4 0 6 5 11 10 11 6 0 10 -2 10 -4z m184 -4 c3 -5 -1 -9
-9 -9 -8 0 -12 4 -9 9 3 4 7 8 9 8 2 0 6 -4 9 -8z m-147 -17 c0 -8 -4 -12 -9
-9 -5 3 -6 10 -3 15 9 13 12 11 12 -6z m43 -5 c0 -5 -2 -10 -4 -10 -3 0 -8 5
-11 10 -3 6 -1 10 4 10 6 0 11 -4 11 -10z"/>
<path d="M724 1942 c4 -3 14 -7 22 -8 9 -1 13 0 10 4 -4 3 -14 7 -22 8 -9 1
-13 0 -10 -4z"/>
<path d="M786 1911 c12 -14 57 -24 49 -11 -3 4 1 11 7 13 9 4 10 6 1 6 -6 1
-15 -4 -18 -9 -4 -7 -14 -6 -28 1 -17 9 -19 9 -11 0z"/>
<path d="M677 2068 c19 -21 31 -25 14 -5 -6 8 -9 16 -6 19 3 2 -2 5 -10 5 -13
0 -13 -3 2 -19z"/>
<path d="M813 2075 c0 -8 4 -12 9 -9 5 3 6 10 3 15 -9 13 -12 11 -12 -6z"/>
<path d="M856 2082 c-2 -4 -1 -14 4 -22 7 -11 9 -9 7 8 -1 24 -3 26 -11 14z"/>
<path d="M370 2069 c0 -5 5 -7 10 -4 6 3 10 8 10 11 0 2 -4 4 -10 4 -5 0 -10
-5 -10 -11z"/>
<path d="M540 2060 c-8 -5 -10 -10 -5 -10 6 0 17 5 25 10 8 5 11 10 5 10 -5 0
-17 -5 -25 -10z"/>
<path d="M601 2054 c0 -11 3 -14 6 -6 3 7 2 16 -1 19 -3 4 -6 -2 -5 -13z"/>
<path d="M717 2053 c-10 -9 -9 -23 1 -23 5 0 9 7 9 15 0 17 -1 18 -10 8z"/>
<path d="M799 2033 c-13 -16 -12 -17 4 -4 9 7 17 15 17 17 0 8 -8 3 -21 -13z"/>
<path d="M995 2040 c-3 -5 -1 -10 4 -10 6 0 11 5 11 10 0 6 -2 10 -4 10 -3 0
-8 -4 -11 -10z"/>
<path d="M690 2035 c0 -5 5 -17 10 -25 5 -8 10 -10 10 -5 0 6 -5 17 -10 25 -5
8 -10 11 -10 5z"/>
<path d="M774 2023 c3 -16 -1 -21 -15 -20 -12 1 -17 7 -14 15 3 7 0 10 -6 7
-16 -10 -5 -28 19 -31 26 -4 32 5 21 31 -9 19 -9 19 -5 -2z"/>
<path d="M865 2020 c11 -14 21 -27 22 -29 1 -2 1 6 0 17 0 12 -3 19 -6 17 -2
-3 -11 1 -20 7 -10 8 -8 3 4 -12z"/>
<path d="M820 2020 c-9 -6 -10 -10 -3 -10 6 0 15 5 18 10 8 12 4 12 -15 0z"/>
<path d="M1095 2000 c-3 -5 -1 -10 4 -10 6 0 11 5 11 10 0 6 -2 10 -4 10 -3 0
-8 -4 -11 -10z"/>
<path d="M334 1984 c4 -9 -4 -19 -19 -26 -14 -6 -25 -18 -25 -26 0 -12 6 -10
24 7 14 13 29 20 34 17 15 -9 39 3 39 19 0 8 -3 14 -6 13 -3 0 -8 1 -11 2 -25
9 -41 7 -36 -6z"/>
<path d="M799 1993 c-1 -5 -1 -12 0 -17 1 -5 -6 -5 -16 -2 -14 6 -16 5 -5 -5
9 -10 15 -10 24 -1 7 7 8 12 3 12 -6 0 -3 5 5 10 10 6 11 10 3 10 -7 0 -14 -3
-14 -7z"/>
<path d="M862 1980 c0 -14 2 -19 5 -12 2 6 2 18 0 25 -3 6 -5 1 -5 -13z"/>
<path d="M310 1980 c0 -5 5 -10 11 -10 5 0 7 5 4 10 -3 6 -8 10 -11 10 -2 0
-4 -4 -4 -10z"/>
<path d="M1033 1974 c0 -7 6 -15 13 -18 9 -3 11 1 7 11 -5 12 -3 14 8 8 8 -5
11 -4 6 0 -13 14 -34 14 -34 -1z"/>
<path d="M1175 1980 c3 -5 8 -10 11 -10 2 0 4 5 4 10 0 6 -5 10 -11 10 -5 0
-7 -4 -4 -10z"/>
<path d="M982 1957 c10 -8 15 -17 11 -20 -3 -4 -1 -7 5 -7 20 0 13 19 -10 30
-21 10 -21 10 -6 -3z"/>
<path d="M1131 1951 c-8 -5 -9 -11 -3 -15 5 -3 12 1 16 9 6 17 6 18 -13 6z"/>
<path d="M1174 1941 c0 -12 5 -17 15 -13 8 3 12 1 8 -5 -3 -5 0 -10 8 -10 10
0 12 4 5 12 -5 7 -6 16 -2 21 4 5 3 6 -2 2 -5 -4 -14 -4 -20 2 -8 6 -12 3 -12
-9z"/>
<path d="M1057 1938 c-7 -5 0 -6 17 -4 16 3 31 7 33 10 8 8 -37 2 -50 -6z"/>
<path d="M1010 1915 c-7 -8 -10 -18 -6 -22 3 -3 6 -1 6 6 0 9 4 8 15 -3 8 -8
15 -17 15 -20 0 -11 -42 0 -50 13 -6 10 -9 10 -15 1 -4 -6 1 -20 10 -30 10
-11 12 -20 6 -24 -5 -4 -12 -2 -15 3 -5 7 -41 8 -41 1 0 -8 -43 -7 -57 1 -14
7 -24 7 -34 -2 -19 -16 -18 -33 3 -25 10 4 26 -3 45 -20 15 -15 31 -25 34 -21
9 9 -22 38 -31 29 -5 -4 -5 -2 -1 5 4 7 13 10 21 6 9 -3 15 1 15 8 0 8 5 6 14
-6 13 -18 14 -18 39 1 15 10 25 24 22 31 -2 7 0 15 5 18 6 4 10 3 11 -2 4 -46
13 -59 32 -47 7 5 4 1 -6 -8 -11 -10 -14 -18 -8 -18 7 0 10 -3 7 -8 -2 -4 2
-16 10 -27 15 -20 15 -20 32 3 13 17 20 20 29 11 6 -6 10 -17 9 -23 -2 -6 -1
-7 2 -3 2 4 11 2 20 -5 12 -10 16 -10 19 0 3 6 10 9 16 6 8 -5 8 -2 0 7 -7 7
-13 20 -13 29 0 13 1 13 10 0 5 -8 10 -10 11 -5 8 55 13 78 21 90 4 6 -3 12
-15 12 -12 1 -17 -1 -11 -5 6 -4 9 -16 7 -27 -3 -11 -4 -27 -4 -37 0 -9 -7
-15 -14 -14 -18 3 -32 16 -18 16 23 0 21 41 -2 64 -13 13 -23 26 -22 28 1 2
-8 -7 -20 -21 -24 -27 -59 -37 -61 -18 -1 7 -3 23 -4 36 -4 30 -21 37 -38 16z
m30 -5 c0 -5 -2 -10 -4 -10 -3 0 -8 5 -11 10 -3 6 -1 10 4 10 6 0 11 -4 11
-10z m118 -72 c-7 -4 -9 -8 -4 -8 5 0 3 -6 -3 -14 -9 -10 -9 -16 -1 -21 6 -4
9 -13 6 -21 -3 -8 0 -14 6 -14 6 0 9 -3 5 -6 -3 -3 -19 3 -36 15 l-30 21 -15
-22 c-9 -12 -16 -18 -16 -12 0 5 5 15 12 22 7 7 8 12 2 12 -5 0 -15 -5 -21
-11 -9 -9 -11 -8 -10 2 4 22 17 39 30 39 8 0 7 -3 -2 -9 -9 -6 -4 -8 17 -8 30
2 37 14 17 30 -6 5 -3 7 7 4 9 -3 19 0 22 8 4 11 0 12 -17 6 -13 -5 -21 -16
-19 -25 3 -15 0 -15 -17 -4 -20 12 -29 29 -13 27 20 -3 31 3 37 22 l7 21 24
-23 c18 -17 21 -25 12 -31z m-113 23 c-3 -5 -1 -12 5 -16 6 -4 8 -11 4 -16 -9
-14 -23 -1 -19 19 5 23 4 22 11 22 3 0 3 -4 -1 -9z m-160 -39 c-3 -3 -11 0
-18 7 -9 10 -8 11 6 5 10 -3 15 -9 12 -12z m90 6 c4 -3 2 -9 -3 -12 -5 -3 -15
1 -21 8 -10 11 -9 14 3 12 9 -1 18 -5 21 -8z"/>
<path d="M1116 1789 c3 -5 9 -7 14 -4 4 3 11 0 13 -5 3 -6 4 -5 3 1 -1 7 -10
13 -19 15 -9 1 -15 -2 -11 -7z"/>
<path d="M1099 1925 c-1 -3 -3 -9 -4 -15 -1 -5 -3 -14 -4 -20 0 -5 -6 -10 -12
-10 -6 0 -8 9 -4 23 5 20 5 20 -6 4 -17 -28 7 -49 26 -23 8 10 12 22 10 27 -3
4 1 10 7 12 10 4 10 6 1 6 -7 1 -14 -1 -14 -4z"/>
<path d="M1151 1925 c1 -19 18 -51 18 -35 0 8 -4 22 -9 30 -5 8 -9 11 -9 5z"/>
<path d="M1416 1918 c3 -5 10 -6 15 -3 13 9 11 12 -6 12 -8 0 -12 -4 -9 -9z"/>
<path d="M647 1904 c-21 -11 -32 -12 -48 -3 -17 9 -20 8 -17 -3 3 -7 -2 -18
-10 -24 -11 -8 -3 -10 32 -10 27 1 50 7 55 14 6 10 16 6 42 -17 18 -17 38 -29
44 -27 5 2 17 0 26 -5 20 -10 58 25 39 36 -7 4 -17 2 -23 -4 -9 -9 -7 -11 8
-6 15 5 17 4 6 -3 -14 -10 -41 -6 -41 7 0 4 5 12 11 18 7 7 3 10 -15 8 -14 -2
-37 5 -50 16 -28 22 -24 22 -59 3z m72 -24 c18 -17 29 -30 24 -30 -5 0 -20 10
-33 23 -14 12 -28 21 -32 20 -5 -2 -8 2 -8 7 0 17 13 11 49 -20z m-59 15 c0
-2 -10 -9 -22 -15 -22 -11 -22 -10 -4 4 21 17 26 19 26 11z"/>
<path d="M1450 1899 c0 -5 5 -7 10 -4 6 3 10 8 10 11 0 2 -4 4 -10 4 -5 0 -10
-5 -10 -11z"/>
<path d="M1355 1891 c-3 -5 -2 -12 3 -15 5 -3 9 1 9 9 0 17 -3 19 -12 6z"/>
<path d="M1389 1883 c-13 -16 -12 -17 4 -4 9 7 17 15 17 17 0 8 -8 3 -21 -13z"/>
<path d="M1530 1880 c0 -5 5 -10 11 -10 5 0 7 5 4 10 -3 6 -8 10 -11 10 -2 0
-4 -4 -4 -10z"/>
<path d="M1392 1854 c-7 -8 -8 -14 -3 -14 10 0 25 19 20 25 -2 1 -10 -3 -17
-11z"/>
<path d="M1350 1850 c0 -5 5 -10 11 -10 5 0 7 5 4 10 -3 6 -8 10 -11 10 -2 0
-4 -4 -4 -10z"/>
<path d="M1427 1834 c2 -7 11 -10 19 -7 19 7 18 10 -5 16 -13 3 -18 1 -14 -9z"/>
<path d="M1650 1840 c0 -5 5 -10 11 -10 5 0 7 5 4 10 -3 6 -8 10 -11 10 -2 0
-4 -4 -4 -10z"/>
<path d="M1690 1839 c0 -5 5 -7 10 -4 6 3 10 8 10 11 0 2 -4 4 -10 4 -5 0 -10
-5 -10 -11z"/>
<path d="M1535 1820 c1 -11 5 -23 10 -27 4 -5 5 -3 2 4 -4 6 -2 13 4 15 7 2 6
8 -3 16 -12 9 -14 8 -13 -8z"/>
<path d="M1347 1818 c6 -11 31 -10 37 1 3 5 -5 8 -18 7 -13 0 -22 -4 -19 -8z"/>
<path d="M1390 1800 c-12 -16 -26 -30 -32 -30 -6 0 -6 6 2 15 9 10 9 15 1 15
-6 0 -11 -4 -11 -10 0 -5 -4 -10 -10 -10 -5 0 -7 8 -3 18 3 9 3 14 -1 10 -4
-3 -8 -12 -10 -20 -1 -7 -5 -20 -10 -28 -7 -12 -6 -13 5 -2 20 19 31 14 17 -7
-7 -11 -17 -17 -23 -14 -5 4 -7 3 -3 -2 4 -4 2 -15 -5 -23 -9 -13 -9 -14 1 -8
6 4 12 3 12 -2 0 -6 -7 -13 -16 -16 -8 -3 -13 -10 -9 -15 3 -5 0 -13 -6 -16
-5 -4 -8 -13 -5 -21 3 -7 1 -16 -5 -19 -5 -4 -8 -12 -7 -18 1 -7 -5 -34 -15
-62 -36 -109 -87 -309 -79 -317 4 -4 194 -58 422 -119 494 -133 479 -129 485
-119 5 8 73 271 80 312 3 15 9 38 15 52 7 19 6 26 -2 26 -7 0 -3 7 8 15 19 15
19 15 -1 9 -19 -5 -19 -5 -3 9 17 13 17 15 -2 32 -13 12 -18 25 -14 37 5 17 4
18 -15 7 -14 -9 -17 -17 -10 -25 6 -8 4 -14 -7 -18 -21 -8 -24 -8 -24 5 0 5 4
8 9 5 5 -3 9 6 9 21 l0 27 -24 -29 c-14 -18 -19 -32 -13 -36 7 -4 4 -9 -6 -12
-9 -4 -14 -3 -11 2 3 5 -1 12 -10 15 -12 5 -13 10 -6 19 8 9 6 16 -9 26 -19
11 -20 10 -14 -8 4 -13 2 -21 -5 -21 -6 0 -8 5 -4 12 5 8 2 9 -11 4 -18 -6
-18 -6 -2 12 16 18 14 32 -5 32 -5 0 -6 -5 -2 -12 4 -7 -7 -2 -24 11 -18 12
-32 18 -32 12 0 -6 9 -16 20 -23 11 -7 20 -17 20 -22 0 -4 -7 -2 -16 5 -15 12
-16 11 -10 -11 6 -21 4 -19 -13 8 -12 18 -25 31 -30 28 -10 -7 -33 18 -26 28
3 3 0 2 -7 -4 -9 -7 -7 -14 5 -28 19 -21 13 -32 -17 -31 -19 1 -19 2 3 8 21 6
22 8 7 20 -10 9 -16 10 -16 2 0 -6 -5 -11 -10 -11 -6 0 -4 10 5 23 14 23 12
37 -7 37 -5 0 -7 -4 -4 -8 2 -4 0 -14 -5 -22 -8 -13 -10 -13 -18 0 -5 8 -7 18
-4 24 4 5 -1 7 -11 3 -9 -4 -15 -3 -12 2 7 10 -49 9 -60 -2 -4 -4 4 -7 17 -8
13 0 18 -3 11 -6 -7 -3 -20 -2 -28 1 -13 5 -14 9 -4 21 8 10 9 15 2 15 -6 0
-14 -5 -18 -11 -9 -15 -25 11 -19 32 4 12 -4 15 -40 15 -28 0 -44 -4 -42 -10
2 -6 18 -10 35 -9 29 1 30 1 14 -17 -8 -11 -20 -16 -25 -13 -6 4 -8 -1 -4 -10
4 -10 2 -17 -4 -17 -6 0 -9 9 -6 20 5 21 -13 42 -34 38 -10 -2 -14 7 -13 30 1
17 -1 32 -5 32 -11 0 -36 -20 -25 -20 6 0 11 -13 12 -30 0 -16 -3 -30 -8 -30
-5 0 -6 7 -3 17 4 11 3 14 -5 9 -7 -4 -12 -2 -12 3 0 6 5 11 11 11 6 0 7 5 2
13 -4 6 -6 21 -4 32 3 20 2 20 -12 1 -8 -12 -19 -16 -27 -11 -9 5 -10 2 -5
-14 4 -13 2 -21 -5 -21 -6 0 -8 5 -5 10 13 21 -35 9 -49 -12 -9 -12 -16 -17
-16 -11 0 6 7 16 15 23 8 7 15 18 15 24 0 6 -12 -2 -25 -17 -14 -15 -25 -24
-25 -19 0 4 9 18 20 30 23 25 24 29 8 29 -7 0 -21 4 -31 8 -13 6 -16 3 -11 -9
3 -9 10 -13 15 -10 5 3 6 -2 2 -12 -5 -15 -7 -14 -16 2 -13 23 -28 34 -39 28
-13 -8 -9 -24 5 -20 6 1 9 1 4 -1 -4 -3 -4 -10 0 -16 7 -12 -20 6 -46 32 -13
12 -12 13 8 6 22 -7 23 -7 5 20 -13 20 -14 25 -3 23 8 -2 13 4 11 14 -1 9 2
19 8 23 6 4 7 -1 3 -11 -5 -14 -3 -16 11 -11 12 5 15 3 10 -6 -5 -7 0 -6 12 3
18 14 18 14 5 -5 -14 -19 -14 -19 5 -2 16 15 17 19 4 27 -9 6 -20 5 -29 -3
-12 -10 -13 -9 -2 11 9 17 16 20 30 13 20 -11 62 11 48 25 -4 4 -7 2 -7 -4 0
-7 -4 -12 -10 -12 -5 0 -7 8 -4 18 5 16 5 16 -9 0 -22 -27 -32 -21 -13 7 23
35 12 31 -14 -5z m-78 -147 c-6 -2 -9 -10 -6 -15 4 -7 2 -8 -5 -4 -13 9 -5 26
12 25 9 0 8 -2 -1 -6z m15 -31 c0 -10 -9 -18 -18 -18 -17 0 -17 1 -1 18 21 21
21 21 19 0z m60 -14 c-3 -7 -5 -2 -5 12 0 14 2 19 5 13 2 -7 2 -19 0 -25z m87
-3 c-4 -8 -11 -15 -16 -15 -6 0 -5 6 2 15 7 8 14 15 16 15 2 0 1 -7 -2 -15z
m13 -27 c-3 -8 -6 -5 -6 6 -1 11 2 17 5 13 3 -3 4 -12 1 -19z m43 14 c0 -5 -7
-9 -15 -9 -8 0 -12 4 -9 9 3 4 9 8 15 8 5 0 9 -4 9 -8z m-220 -17 c-5 -7 -9
-14 -7 -16 1 -2 0 -3 -2 -1 -11 7 -7 29 5 29 9 0 11 -4 4 -12z m99 12 c-2 -1
-13 -9 -24 -17 -19 -14 -19 -14 -6 3 7 9 18 17 24 17 6 0 8 -1 6 -3z m176 -41
c0 -15 -4 -21 -9 -16 -5 5 -6 16 -3 24 9 22 12 20 12 -8z m125 -17 c0 -4 -4
-11 -10 -14 -6 -4 -7 1 -3 11 4 11 3 15 -5 10 -6 -3 -14 -1 -18 5 -5 8 -3 9 6
4 10 -6 12 -3 7 11 -7 18 -7 18 8 0 8 -11 15 -23 15 -27z m-243 18 c0 -8 -6
-14 -14 -14 -9 0 -10 4 -2 14 6 7 12 13 14 13 1 0 2 -6 2 -13z m68 1 c5 4 5 1
1 -6 -5 -9 -12 -9 -27 -2 -10 6 -19 13 -19 16 0 2 8 0 19 -5 10 -6 22 -7 26
-3z m-111 -6 c3 -5 -1 -9 -9 -9 -8 0 -12 4 -9 9 3 4 7 8 9 8 2 0 6 -4 9 -8z
m140 -28 c3 -8 2 -12 -4 -9 -6 3 -10 10 -10 16 0 14 7 11 14 -7z m60 7 c3 -5
-2 -15 -12 -22 -15 -12 -16 -12 -5 2 7 9 10 19 6 22 -3 4 -4 7 0 7 3 0 8 -4
11 -9z m41 -1 c-3 -5 -1 -10 6 -10 7 0 10 -3 6 -6 -9 -9 -28 6 -22 17 4 5 8 9
11 9 3 0 2 -4 -1 -10z m56 -13 c-10 -9 -11 -8 -5 6 3 10 9 15 12 12 3 -3 0
-11 -7 -18z m96 5 c9 -15 8 -19 -3 -19 -7 0 -11 4 -8 9 3 4 0 8 -5 8 -6 0 -11
5 -11 10 0 16 14 12 27 -8z m-332 -11 c3 -5 2 -12 -3 -15 -5 -3 -9 1 -9 9 0
17 3 19 12 6z m277 2 c-13 -3 -19 -9 -16 -15 4 -7 2 -8 -5 -4 -17 11 -3 26 22
25 22 -2 22 -2 -1 -6z m-111 -20 c13 -16 12 -17 -3 -4 -10 7 -18 15 -18 17 0
8 8 3 21 -13z m-91 -3 c8 -5 11 -10 5 -10 -5 0 -17 5 -25 10 -8 5 -10 10 -5
10 6 0 17 -5 25 -10z m260 -4 c0 -2 -7 -7 -16 -10 -8 -3 -12 -2 -9 4 6 10 25
14 25 6z m-219 -29 c-10 -9 -11 -8 -5 6 3 10 9 15 12 12 3 -3 0 -11 -7 -18z
m109 17 c0 -8 -19 -13 -24 -6 -3 5 1 9 9 9 8 0 15 -2 15 -3z m53 -14 c10 -12
9 -12 -4 -2 -9 6 -18 9 -21 6 -3 -3 -9 -1 -12 4 -9 15 22 8 37 -8z m169 13
c-6 -2 -9 -10 -6 -15 4 -7 2 -8 -4 -4 -18 11 -14 26 6 25 10 0 12 -3 4 -6z
m-262 -23 c0 -5 -5 -10 -11 -10 -5 0 -7 5 -4 10 3 6 8 10 11 10 2 0 4 -4 4
-10z m219 -6 c-6 -7 -7 -19 -3 -25 4 -7 3 -9 -4 -5 -15 9 -11 43 5 43 9 0 10
-4 2 -13z m112 -11 c-12 -20 -14 -14 -5 12 4 9 9 14 11 11 3 -2 0 -13 -6 -23z
m-171 -3 c0 -5 -2 -10 -4 -10 -3 0 -8 5 -11 10 -3 6 -1 10 4 10 6 0 11 -4 11
-10z m226 -2 c4 -7 3 -8 -5 -4 -6 4 -19 2 -27 -5 -12 -10 -13 -9 -8 5 7 19 30
21 40 4z m114 2 c0 -5 -7 -7 -15 -4 -8 4 -15 8 -15 10 0 2 7 4 15 4 8 0 15 -4
15 -10z m-28 -14 c7 4 8 2 4 -5 -9 -13 -26 -5 -25 12 0 9 2 8 6 -1 2 -6 10 -9
15 -6z m-172 -10 c-7 -7 -13 -7 -20 0 -6 6 -3 10 10 10 13 0 16 -4 10 -10z
m-64 -18 c3 -4 -1 -5 -10 -4 -8 1 -18 5 -22 8 -3 4 1 5 10 4 8 -1 18 -5 22 -8z
m89 -18 c3 -6 -1 -7 -9 -4 -18 7 -21 14 -7 14 6 0 13 -4 16 -10z m90 1 c3 -5
2 -12 -3 -15 -5 -3 -9 1 -9 9 0 17 3 19 12 6z m36 -8 c13 -16 12 -17 -3 -4
-10 7 -18 15 -18 17 0 8 8 3 21 -13z"/>
<path d="M1586 1819 c7 -12 41 -16 41 -5 0 6 -10 11 -23 11 -12 0 -20 -3 -18
-6z"/>
<path d="M1440 1760 c-25 -28 -46 -55 -48 -60 -5 -15 -22 -12 -19 3 1 6 -5 12
-13 12 -8 0 -15 -7 -15 -15 0 -11 11 -15 40 -14 54 2 79 7 87 19 5 6 8 4 8 -5
0 -12 2 -13 9 -1 7 11 10 9 16 -9 5 -15 13 -20 26 -17 11 3 23 -2 29 -11 7
-12 9 -13 10 -3 0 11 3 11 15 1 8 -7 12 -16 9 -21 -3 -5 0 -9 7 -9 10 0 10 -3
1 -12 -17 -17 -15 -33 3 -18 9 8 13 21 10 34 -5 17 -3 17 9 -4 9 -14 15 -19
16 -11 0 11 3 11 15 1 14 -12 19 -7 16 15 -1 6 6 1 15 -10 l17 -20 -7 20 c-6
20 -6 20 9 1 8 -11 12 -28 9 -39 -4 -14 -2 -18 7 -15 8 3 14 18 14 35 -1 27 2
30 24 28 22 -2 23 -1 8 10 -18 13 -24 31 -7 20 6 -3 7 1 4 10 -5 11 -2 14 12
9 11 -3 15 -2 8 3 -6 4 -16 17 -23 28 -11 18 -11 18 -5 -5 7 -25 7 -25 -15 -6
-16 15 -19 22 -9 28 9 6 6 7 -9 3 -12 -3 -24 -1 -28 5 -11 17 -26 0 -20 -23 6
-21 5 -21 -8 -4 -11 13 -16 15 -20 5 -2 -7 -8 -10 -12 -6 -4 4 -2 15 6 25 8 9
9 14 3 10 -7 -4 -15 0 -18 9 -3 8 -10 13 -15 10 -5 -3 -12 1 -15 10 -3 9 -11
12 -18 8 -8 -5 -9 -2 -4 12 5 14 4 16 -5 7 -12 -12 -3 -37 11 -28 4 3 11 -2
14 -11 3 -8 10 -12 16 -9 5 3 10 3 11 -2 0 -4 2 -18 3 -31 3 -23 -25 -48 -38
-35 -12 13 -6 22 12 17 14 -5 15 -4 2 5 -10 7 -11 11 -2 11 6 0 12 4 12 10 0
5 -7 6 -17 3 -9 -4 -14 -2 -10 3 3 6 -3 16 -15 23 -11 7 -17 8 -13 2 3 -6 1
-11 -5 -11 -7 0 -9 -7 -6 -16 5 -12 2 -15 -10 -10 -8 3 -18 6 -20 6 -2 0 -4 7
-4 16 0 8 4 13 9 9 15 -9 25 15 12 28 -9 9 -11 8 -5 -6 3 -10 3 -17 -2 -16
-22 4 -33 -2 -28 -16 5 -11 2 -13 -10 -9 -9 3 -13 10 -10 15 3 5 -3 6 -13 2
-15 -5 -16 -4 -5 8 7 8 20 14 29 14 9 0 17 6 19 13 1 7 0 8 -3 2 -8 -16 -23
-12 -17 5 9 23 2 18 -46 -35z m25 -22 c27 -12 33 -24 13 -26 -22 -2 -43 -7
-54 -15 -20 -12 -24 5 -6 29 20 28 15 27 47 12z m109 -30 c-2 -9 1 -20 8 -24
19 -12 50 -15 43 -5 -3 6 3 15 14 21 13 7 22 7 26 0 11 -18 26 1 19 23 -7 21
-5 20 27 -4 23 -18 34 -35 34 -52 1 -14 -4 -25 -10 -24 -5 1 -8 -7 -7 -18 4
-17 2 -17 -15 4 -21 25 -62 24 -47 -1 5 -9 3 -9 -9 1 -9 7 -17 10 -17 5 0 -4
-7 1 -15 12 -8 10 -15 15 -15 10 0 -5 -9 -1 -20 9 -11 10 -20 15 -20 11 0 -4
-6 -4 -12 1 -7 4 -19 8 -27 10 -8 1 -18 8 -22 15 -11 16 -12 37 -1 23 10 -15
47 -13 48 3 3 25 5 27 14 12 5 -8 7 -22 4 -32z"/>
<path d="M1424 1718 c-10 -13 -12 -17 -4 -11 8 6 18 12 23 12 8 1 11 11 4 17
-2 2 -12 -6 -23 -18z"/>
<path d="M1554 1709 c-3 -6 -2 -15 3 -20 5 -5 9 -1 9 11 0 23 -2 24 -12 9z"/>
<path d="M1689 1693 c-13 -16 -12 -17 4 -4 10 8 17 9 17 3 0 -6 -5 -14 -10
-17 -8 -5 -7 -11 1 -21 6 -7 15 -11 21 -8 5 3 4 13 -4 22 -11 14 -10 15 6 8
19 -7 19 -6 1 14 -22 24 -19 24 -36 3z"/>
<path d="M1640 1689 c-12 -9 -12 -10 3 -5 12 4 17 2 14 -6 -2 -7 -10 -12 -16
-10 -16 3 -14 -15 3 -21 22 -9 38 16 23 36 -9 13 -16 14 -27 6z"/>
<path d="M1819 1808 c-6 -20 -6 -39 0 -42 4 -3 7 6 7 20 0 20 -4 32 -7 22z"/>
<path d="M990 1780 c0 -5 5 -10 11 -10 5 0 7 5 4 10 -3 6 -8 10 -11 10 -2 0
-4 -4 -4 -10z"/>
<path d="M1626 1778 c3 -5 8 -7 12 -4 3 3 10 -2 17 -11 9 -13 14 -13 20 -3 5
8 4 11 -3 6 -5 -3 -12 -1 -14 6 -2 6 -12 12 -21 14 -9 1 -14 -2 -11 -8z"/>
<path d="M1690 1786 c0 -2 7 -7 16 -10 8 -3 12 -2 9 4 -6 10 -25 14 -25 6z"/>
<path d="M1697 1759 c7 -7 15 -10 18 -7 3 3 -2 9 -12 12 -14 6 -15 5 -6 -5z"/>
<path d="M1910 1760 c0 -5 5 -10 11 -10 5 0 7 5 4 10 -3 6 -8 10 -11 10 -2 0
-4 -4 -4 -10z"/>
<path d="M1979 1768 c-5 -16 -4 -46 2 -42 4 2 7 13 6 24 -1 17 -5 26 -8 18z"/>
<path d="M1767 1731 c9 -11 20 -18 25 -15 4 3 8 1 8 -5 0 -5 3 -16 6 -25 4
-11 1 -16 -10 -16 -10 0 -15 -8 -13 -22 1 -16 -3 -22 -14 -20 -9 1 -19 -4 -23
-13 -6 -16 2 -44 13 -46 10 -2 59 -9 85 -11 13 -2 27 -6 31 -10 4 -4 13 -4 20
-2 7 3 16 1 20 -5 3 -6 1 -11 -5 -11 -6 0 -8 -5 -5 -11 4 -6 10 -8 13 -5 3 3
15 -2 26 -11 19 -16 19 -16 7 -1 -20 26 -4 41 25 22 22 -15 28 -13 25 8 0 4 6
5 14 2 8 -4 13 -10 10 -15 -3 -4 8 -18 25 -30 23 -17 27 -26 19 -36 -9 -10 -8
-13 1 -13 6 0 14 8 17 18 6 23 40 45 48 31 5 -7 11 -6 20 1 17 14 47 -24 38
-48 -5 -10 -2 -13 6 -8 7 5 11 17 8 27 -3 11 -1 19 5 19 6 0 8 6 5 14 -3 7 2
24 10 37 10 15 11 19 3 12 -26 -24 -34 -13 -9 13 17 18 19 23 6 18 -10 -3 -17
-1 -17 5 0 6 -5 11 -12 11 -9 0 -9 -3 0 -12 17 -17 15 -33 -2 -19 -11 10 -20
10 -37 1 -19 -11 -21 -10 -16 5 4 9 7 18 7 21 0 2 6 2 13 0 6 -1 9 -1 4 1 -4
3 -4 9 -1 15 3 5 -3 4 -14 -3 -12 -7 -18 -17 -16 -21 3 -4 -2 -8 -10 -8 -22 0
-20 16 4 33 11 8 17 17 13 20 -10 11 -25 8 -18 -3 3 -5 2 -10 -4 -10 -5 0 -13
-9 -16 -20 -4 -11 -11 -17 -17 -14 -7 4 -8 2 -4 -5 4 -6 12 -8 18 -5 6 4 9 1
7 -5 -6 -18 -20 -18 -32 0 -8 13 -6 21 6 34 13 12 15 21 7 36 -6 10 -13 19
-16 19 -2 0 0 -9 6 -19 6 -12 6 -22 1 -25 -5 -3 -12 5 -15 19 -4 14 -14 25
-23 25 -15 0 -15 -1 1 -13 19 -14 23 -42 11 -71 -6 -14 -5 -17 4 -11 10 6 11
3 2 -13 -14 -27 -14 -31 4 -28 18 3 32 16 17 16 -7 0 -12 5 -12 12 0 6 7 4 18
-5 10 -10 22 -14 27 -10 4 5 0 -5 -10 -21 -18 -26 -20 -27 -32 -10 -7 10 -13
12 -13 6 0 -10 -3 -10 -14 0 -9 8 -11 17 -5 23 5 5 9 14 9 20 0 5 -5 3 -10 -5
-7 -12 -9 -10 -7 8 0 12 4 22 8 22 5 0 5 19 0 54 0 4 -7 6 -15 3 -18 -7 -36
11 -37 37 -1 18 -2 19 -6 3 -3 -10 3 -27 13 -38 10 -11 12 -19 6 -19 -7 0 -17
9 -24 19 -12 19 -12 19 -40 0 -15 -11 -28 -16 -28 -10 0 5 9 16 21 24 l21 15
-24 8 c-12 4 -24 6 -26 5 -2 -2 -19 9 -38 24 -19 14 -33 21 -32 14 5 -21 -19
-20 -25 2 -3 11 -10 18 -15 15 -6 -3 -12 1 -16 9 -3 8 -10 15 -16 15 -5 0 -2
-9 7 -19z m136 -70 c4 -1 12 -1 19 -1 6 0 4 -8 -6 -19 -21 -23 -12 -49 10 -30
12 10 13 9 8 -6 -5 -13 -4 -16 4 -11 7 4 12 14 12 22 0 18 14 18 30 -1 11 -13
11 -18 0 -28 -9 -9 -11 -9 -6 0 8 14 -10 27 -19 14 -8 -13 41 -45 55 -36 8 5
8 11 0 20 -7 9 -6 16 5 25 12 10 15 10 16 -1 1 -8 0 -18 -1 -24 -1 -5 -3 -17
-5 -25 -1 -8 -10 -14 -20 -12 -13 3 -16 -1 -11 -14 6 -15 4 -15 -21 1 -18 12
-28 14 -31 7 -2 -7 -12 -3 -25 9 -37 35 -54 41 -62 21 -6 -16 -7 -16 -21 2 -8
11 -14 15 -14 10 0 -14 -43 -12 -58 3 -9 9 -10 13 -2 13 6 0 8 6 4 13 -4 6 -3
9 1 4 5 -4 16 0 26 9 11 10 19 12 24 4 3 -5 11 -7 17 -4 7 5 8 2 3 -6 -6 -9
-4 -11 6 -5 11 7 11 5 -1 -10 -8 -11 -10 -16 -3 -11 9 5 11 2 6 -11 -3 -10 -3
-15 1 -11 4 3 9 12 10 20 5 31 27 57 44 52 14 -5 14 -4 2 4 -8 6 -17 9 -21 6
-4 -2 -9 -1 -12 3 -2 5 -2 2 0 -6 2 -8 -2 -11 -11 -8 -7 3 -19 0 -25 -6 -8 -8
-11 -8 -11 1 0 7 7 15 15 18 8 4 15 11 15 17 0 5 -8 3 -18 -6 -10 -10 -24 -17
-31 -17 -7 0 0 11 16 24 27 23 28 24 53 6 14 -10 28 -18 33 -19z m102 -81 c3
-5 1 -10 -4 -10 -6 0 -11 5 -11 10 0 6 2 10 4 10 3 0 8 -4 11 -10z m155 -30
c9 5 22 5 31 -1 7 -5 10 -9 5 -9 -5 0 -4 -6 1 -12 8 -12 9 -20 4 -45 0 -3 -10
2 -20 11 -13 12 -21 14 -26 6 -5 -8 -11 -8 -19 -1 -7 6 -17 7 -22 3 -4 -4 -2
1 5 11 13 16 8 22 -13 18 -5 -1 -3 5 4 14 9 10 17 12 23 6 6 -6 17 -7 27 -1z"/>
<path d="M1786 1611 c-21 -23 -10 -32 23 -20 19 8 21 12 11 24 -15 19 -13 19
-34 -4z m30 -3 c4 -7 4 -10 -1 -6 -4 4 -15 2 -24 -5 -14 -11 -14 -10 -2 6 16
20 18 21 27 5z"/>
<path d="M1876 1614 c-6 -16 8 -32 48 -55 13 -8 17 -8 12 0 -10 16 5 13 25 -5
14 -12 18 -13 25 -2 4 7 4 10 -1 6 -4 -4 -15 0 -24 10 -9 9 -23 18 -31 20 -8
2 -22 12 -31 22 -15 17 -18 18 -23 4z m48 -43 c-3 -3 -15 6 -27 18 l-22 24 27
-19 c14 -10 24 -21 22 -23z"/>
<path d="M2126 1539 c5 -8 9 -17 10 -21 1 -5 2 -11 3 -15 0 -4 6 -2 13 5 9 9
16 8 29 -4 13 -12 17 -12 15 -2 -3 19 -25 55 -26 41 0 -13 -18 -12 -39 1 -11
7 -12 6 -5 -5z"/>
<path d="M1806 1738 c3 -4 9 -8 15 -8 5 0 9 4 9 8 0 5 -7 9 -15 9 -8 0 -12 -4
-9 -9z"/>
<path d="M1860 1740 c-8 -5 -10 -10 -5 -10 6 0 17 5 25 10 8 5 11 10 5 10 -5
0 -17 -5 -25 -10z"/>
<path d="M1876 1705 c23 -17 34 -19 34 -4 0 5 -4 8 -9 4 -5 -3 -12 -1 -16 5
-3 5 -11 10 -18 10 -6 0 -2 -7 9 -15z"/>
<path d="M1937 1701 c-3 -11 -2 -22 1 -25 9 -10 32 -7 32 4 0 5 -6 7 -14 4
-11 -4 -13 0 -9 15 3 12 3 21 0 21 -2 0 -7 -9 -10 -19z"/>
<path d="M2013 1705 c-3 -9 -3 -18 -1 -21 3 -3 8 4 11 16 6 23 -1 27 -10 5z"/>
<path d="M2130 1701 c0 -6 4 -13 10 -16 6 -3 7 1 4 9 -7 18 -14 21 -14 7z"/>
<path d="M2194 1702 c4 -3 14 -7 22 -8 9 -1 13 0 10 4 -4 3 -14 7 -22 8 -9 1
-13 0 -10 -4z"/>
<path d="M2033 1685 c0 -8 4 -12 9 -9 5 3 6 10 3 15 -9 13 -12 11 -12 -6z"/>
<path d="M1450 1680 c0 -3 6 -15 14 -26 11 -14 17 -16 27 -7 6 6 19 9 28 6 13
-4 14 -3 1 5 -8 6 -18 8 -24 5 -5 -4 -7 0 -4 8 4 11 -1 15 -18 15 -13 0 -24
-3 -24 -6z"/>
<path d="M2011 1654 c0 -11 3 -14 6 -6 3 7 2 16 -1 19 -3 4 -6 -2 -5 -13z"/>
<path d="M2110 1659 c0 -5 5 -7 10 -4 6 3 10 8 10 11 0 2 -4 4 -10 4 -5 0 -10
-5 -10 -11z"/>
<path d="M2206 1658 c3 -4 9 -8 15 -8 5 0 9 4 9 8 0 5 -7 9 -15 9 -8 0 -12 -4
-9 -9z"/>
<path d="M2155 1649 c-4 -6 -5 -12 -2 -15 2 -3 7 2 10 11 7 17 1 20 -8 4z"/>
<path d="M2171 1635 c0 -5 3 -16 8 -23 7 -11 9 -10 14 3 4 9 3 14 -2 10 -5 -3
-12 1 -14 7 -3 7 -6 9 -6 3z"/>
<path d="M2211 1613 c-1 -17 16 -25 25 -12 4 7 3 9 -4 5 -5 -3 -13 0 -15 6 -4
9 -6 10 -6 1z"/>
<path d="M1645 1570 c3 -5 8 -10 11 -10 2 0 4 5 4 10 0 6 -5 10 -11 10 -5 0
-7 -4 -4 -10z"/>
<path d="M2085 1509 c-4 -6 -5 -12 -2 -15 2 -3 7 2 10 11 7 17 1 20 -8 4z"/>
<path d="M2170 1460 c0 -5 5 -10 11 -10 5 0 7 5 4 10 -3 6 -8 10 -11 10 -2 0
-4 -4 -4 -10z"/>
<path d="M290 1240 c0 -5 5 -10 11 -10 5 0 7 5 4 10 -3 6 -8 10 -11 10 -2 0
-4 -4 -4 -10z"/>
<path d="M285 1200 c-3 -6 1 -7 9 -4 18 7 21 14 7 14 -6 0 -13 -4 -16 -10z"/>
<path d="M350 1206 c0 -2 7 -7 16 -10 8 -3 12 -2 9 4 -6 10 -25 14 -25 6z"/>
<path d="M310 1181 c0 -6 4 -12 8 -15 5 -3 9 1 9 9 0 8 -4 15 -9 15 -4 0 -8
-4 -8 -9z"/>
<path d="M294 1162 c3 -5 2 -12 -4 -14 -5 -2 -6 -9 -1 -16 6 -10 10 -9 14 7 3
12 0 24 -5 28 -6 3 -8 1 -4 -5z"/>
<path d="M360 1150 c-12 -22 -5 -44 11 -35 5 4 9 2 9 -3 0 -6 -7 -13 -16 -16
-22 -8 -26 -8 -19 4 3 6 2 10 -3 10 -6 0 -12 -6 -15 -13 -3 -7 -18 -12 -33
-11 -44 2 -46 3 -38 17 4 6 3 9 -1 4 -5 -4 -10 -15 -11 -25 -3 -17 -11 -53
-14 -62 -1 -3 -2 -9 -1 -13 1 -4 -5 -20 -13 -35 -7 -15 -12 -37 -11 -49 1 -13
-1 -21 -4 -18 -4 5 -75 -234 -105 -351 -6 -23 -3 -25 184 -74 47 -12 114 -30
150 -40 36 -10 92 -25 125 -34 33 -9 128 -35 210 -57 183 -51 235 -62 242 -56
2 3 8 20 13 39 4 18 27 107 50 198 23 91 43 173 45 183 2 9 7 22 10 27 10 17
-7 11 -20 -7 -9 -13 -14 -13 -20 -3 -5 8 -4 11 2 7 6 -4 13 0 17 8 6 18 -10
30 -17 13 -4 -10 -8 -9 -16 2 -12 17 -8 36 7 33 6 -2 10 6 9 17 -2 27 -10 25
-29 -8 -11 -19 -13 -33 -7 -44 6 -11 5 -19 -2 -24 -8 -4 -9 -3 -5 4 4 7 2 12
-5 12 -7 0 -10 3 -6 6 3 3 0 12 -6 19 -10 10 -15 9 -25 -9 -12 -19 -13 -19 -7
-1 4 11 9 27 12 35 2 8 -6 2 -20 -14 -19 -22 -28 -26 -42 -19 -16 9 -16 11 -1
16 10 4 15 3 11 -3 -3 -6 -2 -10 2 -10 5 0 14 10 22 21 11 19 11 21 -4 15 -9
-3 -23 1 -32 10 -13 13 -17 13 -24 2 -14 -21 -10 -31 6 -18 9 8 15 8 15 2 0
-18 -24 -20 -44 -3 -18 15 -18 15 -12 -6 5 -15 3 -23 -5 -23 -7 0 -10 3 -6 6
3 4 0 19 -8 35 -8 15 -12 36 -8 46 6 16 5 16 -10 4 -18 -14 -19 -41 -2 -54 6
-4 0 -6 -13 -4 -13 2 -32 17 -43 36 -11 18 -14 29 -8 25 7 -4 10 -2 7 6 -4 14
-38 24 -38 11 0 -3 7 -17 16 -29 14 -20 14 -24 0 -44 -9 -12 -16 -18 -16 -12
0 5 5 15 11 21 8 8 7 17 -5 34 -9 13 -16 18 -16 11 0 -6 -5 -12 -12 -12 -9 0
-9 3 0 12 7 7 12 17 12 23 -1 5 -10 -1 -22 -15 -13 -15 -23 -20 -25 -13 -5 13
-33 6 -33 -9 0 -5 4 -7 9 -3 15 9 25 -15 12 -28 -9 -9 -10 -7 -5 7 5 14 4 17
-4 12 -7 -4 -15 -1 -18 8 -3 9 -11 13 -17 9 -6 -3 -7 -1 -3 5 3 6 -1 15 -10
20 -9 5 -15 13 -14 18 1 5 -3 10 -10 12 -6 2 -9 -1 -8 -8 2 -6 -7 -19 -19 -27
-15 -10 -23 -11 -23 -4 0 6 8 11 17 11 12 0 14 3 6 11 -8 8 -17 8 -32 0 -19
-11 -25 -8 -22 12 1 9 -13 9 -22 0 -4 -3 -2 -12 4 -19 7 -9 6 -14 -3 -20 -7
-4 -10 -4 -6 1 4 4 3 14 -3 21 -7 8 -7 14 1 19 5 3 10 11 10 18 0 8 -3 8 -11
0 -9 -9 -16 -6 -29 9 -12 15 -19 18 -24 10 -4 -7 -3 -12 3 -12 6 0 15 -9 21
-20 7 -14 7 -20 0 -20 -5 0 -10 8 -10 17 0 9 -3 13 -7 10 -3 -4 -13 2 -20 13
-8 11 -19 18 -24 15 -5 -4 -10 -1 -10 4 -1 6 -2 16 -3 23 0 6 -6 13 -13 15
-12 4 -12 -7 1 -44 4 -14 12 -20 22 -16 7 3 14 3 14 0 0 -3 -7 -7 -15 -11 -9
-3 -20 5 -29 22 -14 25 -16 25 -20 -5 0 -7 -5 -13 -9 -12 -4 0 -17 -10 -28
-23 l-20 -23 17 27 c9 15 21 25 27 21 6 -4 8 0 4 9 -3 9 0 21 6 28 9 10 7 11
-10 5 -15 -4 -23 -2 -23 5 0 6 -6 8 -12 4 -7 -4 -4 2 6 14 11 12 14 22 8 22
-6 0 -14 -5 -17 -10 -4 -6 -11 -7 -17 -4 -7 5 -9 1 -5 -9 10 -26 -6 -20 -27
11 -11 15 -13 21 -6 15 20 -19 32 -16 21 5 -8 14 -6 18 10 19 11 1 19 -5 19
-15 0 -14 2 -13 13 3 10 13 16 15 21 6 4 -6 12 -9 17 -6 5 4 9 0 9 -7 1 -7 7
-2 16 12 15 25 15 25 8 2 -5 -21 -3 -23 18 -17 18 5 20 4 8 -5 -12 -8 -9 -9
12 -6 15 3 30 0 34 -5 3 -5 10 -7 15 -4 5 3 6 0 3 -8 -3 -8 -1 -18 5 -22 7 -3
8 0 5 9 -7 19 7 21 25 4 11 -11 12 -10 6 2 -5 8 -5 12 0 8 4 -4 15 -2 23 5 13
10 14 9 7 -2 -6 -10 -4 -12 5 -6 9 6 11 4 5 -6 -7 -11 -5 -11 10 1 15 12 17
12 10 1 -6 -10 -4 -12 5 -6 8 5 11 4 6 -3 -4 -7 1 -10 14 -7 11 2 18 0 15 -4
-2 -5 9 -7 25 -6 18 2 27 -1 23 -8 -4 -6 -1 -7 7 -2 9 6 11 4 5 -5 -5 -9 -4
-11 4 -6 15 10 43 -13 34 -27 -7 -12 12 -2 42 22 19 15 19 15 5 -3 -12 -16
-12 -18 -1 -11 10 6 12 4 6 -6 -6 -11 -5 -11 5 -2 10 9 21 6 52 -14 22 -13 37
-19 32 -11 -5 9 -2 8 11 -2 14 -11 17 -11 11 -2 -7 12 -4 12 14 2 18 -10 21
-10 14 2 -6 10 -5 11 8 1 8 -7 19 -9 24 -5 4 4 3 0 -4 -9 -12 -16 0 -39 22
-39 6 0 5 5 -2 12 -7 7 -12 16 -12 20 0 4 8 0 18 -9 10 -10 14 -21 9 -24 -5
-4 -4 -9 2 -13 6 -4 11 -2 11 5 0 8 4 8 15 -1 9 -7 15 -8 15 -2 0 5 -7 13 -16
16 -9 4 -14 9 -11 13 4 3 14 0 24 -8 15 -12 16 -12 8 1 -8 13 -7 13 11 0 15
-11 16 -11 7 0 -7 8 -13 18 -13 24 0 5 6 1 14 -9 8 -11 11 -26 9 -35 -4 -9 0
-7 10 5 9 11 17 16 17 12 0 -4 9 -3 19 2 14 8 22 7 32 -6 8 -9 9 -14 3 -10 -6
3 -11 0 -11 -7 0 -8 7 -12 16 -9 13 4 13 3 2 -5 -11 -8 -11 -11 0 -16 8 -3 3
-3 -11 0 -24 6 -24 6 -7 -12 15 -16 19 -17 26 -5 5 8 7 25 5 38 -3 18 -1 23 8
17 10 -5 10 -4 1 6 -10 11 -9 16 4 25 14 10 14 12 -3 12 -11 0 -25 -4 -31 -10
-9 -6 -13 -6 -13 1 0 6 5 14 10 17 6 4 7 12 1 22 -6 12 -4 21 8 32 23 22 -7 3
-35 -22 -15 -12 -24 -15 -29 -8 -3 6 -1 11 4 11 6 0 11 5 11 10 0 6 -7 6 -19
-2 -11 -7 -18 -20 -16 -31 3 -11 -1 -17 -8 -14 -7 2 -11 11 -9 20 2 10 -4 16
-15 15 -37 0 -64 12 -97 46 -20 19 -44 34 -55 33 -11 0 -17 -5 -14 -11 4 -5
-1 -7 -10 -3 -11 4 -14 2 -10 -9 4 -10 0 -12 -11 -8 -9 3 -13 10 -10 15 3 5
-2 6 -10 3 -9 -3 -16 -2 -16 4 0 6 6 12 13 15 6 2 9 7 6 11 -3 3 -15 -3 -26
-14 -15 -14 -23 -16 -27 -7 -3 9 -7 8 -15 -3 -7 -10 -6 -18 1 -27 7 -8 7 -13
0 -13 -5 0 -15 7 -22 15 -9 10 -9 15 -1 15 15 0 14 17 -2 23 -17 7 -44 -9 -34
-20 5 -4 12 -1 17 7 7 11 9 9 7 -8 -2 -30 -12 -28 -38 9 -22 31 -22 31 -1 25
12 -4 23 -2 28 5 4 8 3 9 -4 5 -7 -4 -22 2 -34 13 -12 12 -24 18 -27 15 -3 -3
1 -9 9 -14 8 -5 11 -12 7 -16 -3 -4 -13 -1 -22 6 -11 9 -15 9 -15 1 0 -7 -4
-10 -10 -6 -5 3 -6 13 -3 23 4 10 -2 7 -15 -8 -12 -14 -21 -20 -22 -14 0 5 5
15 12 22 9 9 9 12 0 12 -7 0 -12 -4 -12 -8 0 -4 -9 -8 -20 -8 -11 0 -19 5 -17
11 2 5 8 10 13 10 5 0 15 4 22 8 6 5 17 5 22 2 6 -3 10 -1 10 4 0 13 -23 15
-34 4 -4 -5 -12 -9 -17 -9 -5 -1 -10 -3 -11 -4 -2 -1 -15 -4 -30 -6 -19 -2
-32 4 -42 17 -9 13 -16 16 -21 10 -3 -6 -11 -11 -17 -11 -6 0 -5 7 3 17 12 14
11 14 -13 -1 -15 -10 -26 -22 -23 -26 3 -4 -2 -10 -10 -13 -9 -4 -12 -1 -8 9
6 16 -12 20 -22 4 -3 -5 -11 -10 -17 -10 -6 0 -3 9 6 19 10 11 23 18 30 15 17
-7 50 21 42 35 -4 6 -12 9 -17 6 -12 -8 -11 2 1 26 6 10 8 19 6 19 -3 0 -10
-9 -16 -20z m-61 -86 c-5 -6 -7 -13 -5 -15 3 -2 -8 -4 -24 -4 -23 -1 -27 2
-20 15 4 8 19 15 33 15 17 0 22 -4 16 -11z m91 -5 c0 -8 5 -7 15 1 13 10 19
10 35 -5 10 -9 23 -14 28 -11 6 3 20 -6 31 -21 12 -16 18 -20 15 -10 -4 10 -1
17 6 17 18 0 7 -33 -12 -36 -10 -1 -19 2 -19 7 -1 5 -2 13 -3 18 0 5 -4 13 -8
17 -4 3 -6 -2 -3 -14 2 -14 -1 -19 -13 -17 -9 2 -18 4 -19 5 -2 2 -6 3 -10 4
-5 1 -14 5 -20 9 -7 5 -18 5 -25 1 -7 -4 -8 -3 -4 5 4 6 2 18 -4 26 -9 11 -9
15 -1 15 6 0 11 -5 11 -11z m-53 -14 c0 -8 -4 -12 -9 -9 -5 3 -6 10 -3 15 9
13 12 11 12 -6z m255 -45 c5 15 36 2 48 -20 9 -17 1 -20 -27 -11 -2 1 -6 1
-10 2 -5 0 -15 7 -24 15 -9 8 -19 11 -22 7 -4 -3 -7 -2 -7 4 0 19 15 24 26 8
7 -10 13 -12 16 -5z m-332 -60 c0 -8 -7 -2 -15 14 -19 36 -19 45 0 20 8 -10
14 -26 15 -34z m642 5 c31 -32 57 -45 95 -47 6 -1 10 -10 7 -21 -4 -24 -14
-36 -14 -17 0 10 -3 10 -15 0 -13 -11 -18 -10 -31 9 -9 12 -19 19 -24 16 -5
-3 -11 -2 -14 3 -3 5 -21 8 -40 7 -20 -1 -36 3 -36 8 0 6 -3 7 -6 4 -4 -3 -16
-1 -28 5 -11 7 -24 11 -28 10 -4 -1 -5 5 -2 13 8 20 -5 19 -28 -2 -17 -16 -20
-16 -36 2 -16 18 -16 18 0 6 22 -17 44 -5 27 15 -9 11 -6 13 18 10 16 -1 38
-8 49 -15 14 -9 15 -11 2 -7 -11 3 -15 0 -12 -7 2 -7 13 -13 24 -13 10 0 16 4
13 9 -5 8 25 47 37 47 4 0 23 -16 42 -35z m-675 -17 c-3 -7 -5 -2 -5 12 0 14
2 19 5 13 2 -7 2 -19 0 -25z m70 26 c-3 -3 -12 -4 -19 -1 -8 3 -5 6 6 6 11 1
17 -2 13 -5z m18 -14 c-3 -5 -12 -10 -18 -10 -7 0 -6 4 3 10 19 12 23 12 15 0z
m-32 -35 c-7 -21 -12 -19 -10 4 0 11 5 18 9 15 4 -3 5 -11 1 -19z m-62 -18
c-10 -9 -11 -8 -5 6 3 10 9 15 12 12 3 -3 0 -11 -7 -18z m160 6 c13 -15 12
-15 -8 -4 -24 12 -29 21 -14 21 5 0 15 -7 22 -17z m39 2 c0 -8 -2 -15 -4 -15
-2 0 -6 7 -10 15 -3 8 -1 15 4 15 6 0 10 -7 10 -15z m680 -13 c-6 -2 -10 -11
-10 -20 0 -15 -2 -15 -10 -2 -8 13 -10 13 -10 -2 0 -9 -7 -15 -15 -14 -21 3
-28 13 -14 22 8 5 10 3 4 -6 -5 -9 -4 -11 4 -6 9 6 9 11 -1 24 -11 13 -11 15
4 9 9 -3 22 1 29 9 10 12 14 12 20 2 5 -7 4 -14 -1 -16z m-656 -8 c3 -8 2 -12
-4 -9 -6 3 -10 10 -10 16 0 14 7 11 14 -7z m86 -14 c0 -5 -5 -10 -11 -10 -5 0
-7 5 -4 10 3 6 8 10 11 10 2 0 4 -4 4 -10z m90 6 c0 -2 -7 -6 -15 -10 -8 -3
-15 -1 -15 4 0 6 7 10 15 10 8 0 15 -2 15 -4z m507 -21 c0 -8 -4 -12 -9 -9 -5
3 -6 10 -3 15 9 13 12 11 12 -6z m-677 -9 c-7 -7 -13 -7 -20 0 -6 6 -3 10 10
10 13 0 16 -4 10 -10z m96 -1 c-1 -8 -5 -17 -8 -21 -5 -4 -4 16 1 34 3 9 9 -1
7 -13z m40 3 c4 -7 3 -8 -4 -4 -7 4 -12 0 -12 -10 0 -10 -3 -15 -6 -11 -7 6 2
37 10 37 3 0 8 -5 12 -12z m43 -16 c-1 -15 -2 -15 -6 1 -2 9 -9 14 -15 11 -7
-4 -8 -2 -4 5 10 15 26 4 25 -17z m101 14 c0 -2 -7 -7 -16 -10 -8 -3 -12 -2
-9 4 6 10 25 14 25 6z m15 -15 c-3 -6 -11 -11 -16 -11 -5 0 -4 6 3 14 14 16
24 13 13 -3z m-391 1 c3 -5 -1 -9 -9 -9 -8 0 -12 4 -9 9 3 4 7 8 9 8 2 0 6 -4
9 -8z m117 -5 c-6 -8 -7 -18 -3 -22 4 -5 1 -5 -6 -1 -10 6 -10 11 -1 22 6 8
14 14 16 14 3 0 0 -6 -6 -13z m187 -12 c-3 -3 -9 2 -12 12 -6 14 -5 15 5 6 7
-7 10 -15 7 -18z m-223 -5 c3 -6 -1 -7 -9 -4 -18 7 -21 14 -7 14 6 0 13 -4 16
-10z m350 0 c-3 -5 0 -10 7 -11 10 0 10 -2 0 -6 -6 -2 -9 -10 -6 -15 4 -6 2
-8 -4 -5 -5 4 -9 15 -7 25 5 23 4 22 11 22 3 0 2 -4 -1 -10z m-155 -4 c0 -2
-8 -10 -17 -17 -16 -13 -17 -12 -4 4 13 16 21 21 21 13z m40 -21 c-5 -7 -9
-14 -7 -16 1 -2 0 -3 -2 -1 -11 7 -7 29 5 29 9 0 11 -4 4 -12z m255 -54 c0
-22 -3 -37 -8 -34 -4 2 -5 15 -3 29 3 14 0 24 -7 24 -9 0 5 14 18 20 1 0 1
-18 0 -39z m105 4 c0 -5 -5 -3 -10 5 -5 8 -10 20 -10 25 0 6 5 3 10 -5 5 -8
10 -19 10 -25z m-286 13 c-3 -4 -11 -5 -19 -1 -21 7 -19 12 4 10 11 0 18 -5
15 -9z m75 -2 c9 -11 9 -16 -1 -22 -7 -4 -10 -4 -6 1 4 4 3 14 -3 22 -6 7 -9
13 -6 13 2 0 10 -6 16 -14z m165 5 c4 -5 -3 -7 -14 -4 -23 6 -26 13 -6 13 8 0
17 -4 20 -9z m-299 -21 c3 -5 1 -10 -4 -10 -6 0 -11 5 -11 10 0 6 2 10 4 10 3
0 8 -4 11 -10z m209 -2 c-3 -4 -9 -8 -15 -8 -5 0 -9 4 -9 8 0 5 7 9 15 9 8 0
12 -4 9 -9z m107 -11 c-10 -9 -11 -8 -5 6 3 10 9 15 12 12 3 -3 0 -11 -7 -18z
m64 13 c-3 -5 -1 -10 5 -10 6 0 8 -5 4 -11 -4 -8 -9 -7 -15 2 -7 12 -3 29 7
29 3 0 2 -4 -1 -10z m45 -14 c0 -3 -4 -8 -10 -11 -5 -3 -10 -1 -10 4 0 6 5 11
10 11 6 0 10 -2 10 -4z m-23 -41 c0 -8 -4 -12 -9 -9 -5 3 -6 10 -3 15 9 13 12
11 12 -6z m-37 -5 c0 -5 -2 -10 -4 -10 -3 0 -8 5 -11 10 -3 6 -1 10 4 10 6 0
11 -4 11 -10z"/>
<path d="M415 1051 c-8 -15 4 -33 17 -25 6 4 14 0 19 -7 5 -8 9 -9 9 -3 0 18
-37 47 -45 35z"/>
<path d="M594 988 c-4 -7 -4 -10 1 -6 4 4 15 2 24 -5 14 -11 14 -10 2 6 -16
20 -18 21 -27 5z"/>
<path d="M844 952 c-11 -26 -13 -42 -6 -43 4 0 15 -2 24 -4 10 -2 20 1 24 6 8
13 24 11 22 -2 -3 -10 17 -18 50 -21 7 -1 10 -8 7 -16 -4 -12 -2 -12 8 -4 8 7
17 10 21 7 3 -3 2 0 -2 5 -5 6 -19 12 -31 15 -13 2 -42 20 -66 39 -38 32 -44
34 -51 18z m35 -15 c6 -8 8 -17 4 -20 -3 -4 -12 1 -20 11 -12 16 -13 16 -7 -3
5 -16 4 -17 -4 -5 -19 26 6 42 27 17z"/>
<path d="M390 1166 c0 -2 7 -7 16 -10 8 -3 12 -2 9 4 -6 10 -25 14 -25 6z"/>
<path d="M324 1142 c3 -5 0 -13 -6 -15 -9 -4 -10 -6 -1 -6 17 -1 25 16 12 25
-7 4 -9 3 -5 -4z"/>
<path d="M390 1145 c0 -5 5 -17 10 -25 5 -8 10 -10 10 -5 0 6 -5 17 -10 25 -5
8 -10 11 -10 5z"/>
<path d="M496 1103 c-6 -14 -5 -15 5 -6 7 7 10 15 7 18 -3 3 -9 -2 -12 -12z"/>
<path d="M275 1100 c3 -5 8 -10 11 -10 2 0 4 5 4 10 0 6 -5 10 -11 10 -5 0 -7
-4 -4 -10z"/>
<path d="M450 1106 c0 -2 7 -7 16 -10 8 -3 12 -2 9 4 -6 10 -25 14 -25 6z"/>
<path d="M555 1100 c-2 -3 5 -7 16 -7 10 -1 19 2 19 6 0 9 -29 10 -35 1z"/>
<path d="M714 1096 c1 -8 5 -18 8 -22 4 -3 5 1 4 10 -1 8 -5 18 -8 22 -4 3 -5
-1 -4 -10z"/>
<path d="M775 1101 c-3 -5 -2 -12 3 -15 5 -3 9 1 9 9 0 17 -3 19 -12 6z"/>
<path d="M515 1090 c-3 -5 -1 -10 4 -10 6 0 11 5 11 10 0 6 -2 10 -4 10 -3 0
-8 -4 -11 -10z"/>
<path d="M635 1089 c-4 -6 -5 -12 -2 -15 2 -3 7 2 10 11 7 17 1 20 -8 4z"/>
<path d="M445 1080 c3 -5 11 -10 16 -10 6 0 7 5 4 10 -3 6 -11 10 -16 10 -6 0
-7 -4 -4 -10z"/>
<path d="M675 1080 c6 -10 4 -12 -7 -8 -11 5 -15 0 -14 -15 1 -28 48 -32 52
-4 1 9 -2 15 -7 11 -5 -3 -7 -9 -4 -14 3 -5 -4 -8 -15 -7 -24 2 -25 6 -3 22
13 9 13 14 3 20 -9 6 -11 4 -5 -5z"/>
<path d="M900 1080 c-9 -6 -10 -10 -3 -10 6 0 15 5 18 10 8 12 4 12 -15 0z"/>
<path d="M595 1059 c-11 -16 -1 -19 13 -3 7 8 8 14 3 14 -5 0 -13 -5 -16 -11z"/>
<path d="M755 1061 c-6 -11 13 -26 22 -17 4 3 1 6 -6 6 -7 0 -9 5 -6 10 3 6 4
10 1 10 -3 0 -7 -4 -11 -9z"/>
<path d="M805 1057 c-14 -11 -15 -16 -5 -22 9 -6 11 -4 5 5 -6 9 -4 12 7 8 9
-4 15 0 15 8 0 17 1 17 -22 1z"/>
<path d="M713 1031 c-19 -16 -20 -20 -7 -25 24 -9 31 -7 14 4 -8 5 -10 10 -4
10 7 0 14 7 18 15 7 19 6 19 -21 -4z"/>
<path d="M862 1027 c10 -8 15 -17 11 -20 -3 -4 -2 -7 3 -7 5 0 15 10 23 23 9
16 10 19 1 10 -9 -9 -19 -9 -34 -2 -19 9 -19 9 -4 -4z"/>
<path d="M270 1021 c0 -6 4 -13 10 -16 6 -3 7 1 4 9 -7 18 -14 21 -14 7z"/>
<path d="M317 1020 c9 -10 10 -17 2 -27 -7 -7 -10 -13 -8 -14 19 -4 48 -5 44
-1 -3 3 1 12 7 21 7 9 8 13 3 8 -4 -4 -20 0 -34 9 -14 9 -20 11 -14 4z"/>
<path d="M741 1014 c0 -11 3 -14 6 -6 3 7 2 16 -1 19 -3 4 -6 -2 -5 -13z"/>
<path d="M765 1020 c-3 -6 1 -7 9 -4 18 7 21 14 7 14 -6 0 -13 -4 -16 -10z"/>
<path d="M815 1020 c-3 -5 -3 -10 2 -10 4 0 1 -5 -7 -11 -12 -8 -12 -10 -1 -7
8 2 15 12 17 21 3 19 -2 22 -11 7z"/>
<path d="M1045 999 c-4 -6 -13 -8 -19 -6 -7 3 -13 -1 -13 -8 0 -7 6 -11 14 -8
9 4 11 0 7 -11 -3 -9 -2 -16 4 -16 6 0 9 8 7 18 -1 9 2 23 8 30 5 6 7 12 4 12
-3 0 -9 -5 -12 -11z"/>
<path d="M1076 1001 c-5 -8 23 -39 31 -33 1 1 6 2 11 2 4 0 0 -5 -8 -10 -9 -6
-10 -10 -3 -10 29 0 18 37 -12 39 -5 1 -9 6 -7 11 3 12 -5 13 -12 1z"/>
<path d="M387 987 c3 -5 12 -6 22 -3 14 6 14 5 -1 -7 -15 -12 -15 -14 4 -26
18 -11 20 -11 15 1 -3 8 -1 21 5 29 8 11 9 10 4 -3 -3 -10 -1 -18 4 -18 5 0
16 -7 25 -16 9 -9 18 -14 21 -11 11 11 -52 61 -78 62 -15 0 -24 -3 -21 -8z"/>
<path d="M900 980 c8 -5 20 -10 25 -10 6 0 3 5 -5 10 -8 5 -19 10 -25 10 -5 0
-3 -5 5 -10z"/>
<path d="M953 983 c4 -6 0 -13 -8 -17 -16 -6 -10 -36 7 -36 6 0 5 6 -2 15 -10
12 -10 15 4 15 19 0 21 16 4 26 -6 4 -8 3 -5 -3z"/>
<path d="M991 974 c0 -11 3 -14 6 -6 3 7 2 16 -1 19 -3 4 -6 -2 -5 -13z"/>
<path d="M493 953 c9 -17 21 -35 27 -38 6 -4 7 -11 4 -17 -5 -7 -1 -7 11 0 10
5 20 17 21 26 1 9 -2 14 -7 10 -5 -3 -9 0 -9 5 0 6 7 11 15 11 14 0 19 -11 16
-37 -1 -6 4 -15 10 -19 7 -4 9 -3 5 4 -3 6 -2 13 4 17 6 4 8 11 5 16 -4 5 -4
9 -2 9 2 0 16 -18 31 -40 22 -34 30 -39 45 -31 10 6 21 7 25 4 3 -3 14 1 24
10 10 10 22 14 27 10 4 -5 5 -2 1 5 -5 8 -13 9 -26 2 -26 -14 -31 -13 -28 8 2
10 -3 17 -12 17 -8 0 -22 5 -30 10 -8 5 -23 10 -32 11 -10 1 -20 3 -23 4 -3 1
-9 4 -15 5 -5 1 -12 4 -15 5 -3 1 -8 3 -12 4 -5 1 -13 5 -20 9 -6 4 -15 3 -18
-3 -5 -8 -12 -7 -22 2 -14 11 -14 9 0 -19z m43 -19 c3 -25 2 -25 -11 -8 -7 11
-9 21 -4 22 5 2 6 9 2 15 -3 7 -2 9 2 5 5 -5 10 -20 11 -34z m144 -19 c9 6 9
2 1 -14 -15 -26 -23 -26 -46 -1 -18 20 -18 21 1 14 17 -7 18 -6 4 12 -14 19
-14 19 7 1 12 -11 27 -16 33 -12z"/>
<path d="M650 900 c0 -5 5 -10 11 -10 5 0 7 5 4 10 -3 6 -8 10 -11 10 -2 0 -4
-4 -4 -10z"/>
<path d="M1295 971 c-3 -5 -2 -12 3 -15 5 -3 9 1 9 9 0 17 -3 19 -12 6z"/>
<path d="M970 941 c0 -5 7 -11 14 -14 10 -4 13 -1 9 9 -6 15 -23 19 -23 5z"/>
<path d="M1010 943 c5 -2 8 -9 4 -14 -3 -5 0 -9 6 -9 15 0 7 23 -8 26 -7 1 -8
0 -2 -3z"/>
<path d="M1060 946 c0 -2 7 -6 15 -10 8 -3 15 -1 15 4 0 6 -7 10 -15 10 -8 0
-15 -2 -15 -4z"/>
<path d="M1150 946 c0 -2 7 -7 16 -10 8 -3 12 -2 9 4 -6 10 -25 14 -25 6z"/>
<path d="M1129 913 c-13 -16 -12 -17 4 -4 15 12 17 11 17 -2 0 -8 -6 -18 -12
-20 -10 -4 -10 -6 0 -6 17 -1 27 28 15 40 -6 6 -15 4 -24 -8z"/>
<path d="M1312 911 c7 -9 13 -18 15 -20 1 -2 1 5 0 16 0 11 -7 20 -14 20 -10
0 -10 -4 -1 -16z"/>
<path d="M1353 915 c0 -8 4 -12 9 -9 5 3 6 10 3 15 -9 13 -12 11 -12 -6z"/>
<path d="M1415 921 c-3 -5 -2 -12 3 -15 5 -3 9 1 9 9 0 17 -3 19 -12 6z"/>
<path d="M765 900 c-4 -6 -3 -10 2 -9 18 4 43 -14 35 -25 -5 -6 -3 -21 4 -36
12 -22 19 -20 15 4 -1 4 3 13 8 20 7 8 -1 18 -24 33 -21 14 -37 19 -40 13z"/>
<path d="M1283 893 c9 -2 14 -9 11 -15 -4 -7 -2 -8 5 -4 15 10 4 26 -17 25
-15 -1 -15 -2 1 -6z"/>
<path d="M1436 873 c-6 -14 -5 -15 5 -6 7 7 10 15 7 18 -3 3 -9 -2 -12 -12z"/>
<path d="M1309 863 c-13 -16 -12 -17 4 -4 16 13 21 21 13 21 -2 0 -10 -8 -17
-17z"/>
<path d="M1496 867 c3 -10 9 -15 12 -12 3 3 0 11 -7 18 -10 9 -11 8 -5 -6z"/>
<path d="M867 857 c-2 -7 -1 -21 3 -31 6 -17 7 -18 13 -3 4 11 12 14 24 10 15
-6 16 -4 6 9 -7 8 -11 17 -8 19 2 3 -4 5 -15 6 -10 1 -20 -4 -23 -10z"/>
<path d="M1335 860 c-3 -6 1 -7 9 -4 18 7 21 14 7 14 -6 0 -13 -4 -16 -10z"/>
<path d="M1397 853 c3 -7 6 -13 8 -13 2 0 5 6 8 13 3 8 -1 14 -8 14 -7 0 -11
-6 -8 -14z"/>
<path d="M1473 858 c1 -7 -5 -11 -13 -10 -8 2 -12 0 -7 -4 4 -4 16 -8 27 -9
15 -1 17 2 9 17 -11 21 -20 24 -16 6z"/>
<path d="M1260 833 l-25 -25 28 17 c15 10 27 21 27 26 0 12 -2 11 -30 -18z"/>
<path d="M1359 837 c16 -20 9 -22 -18 -5 -21 13 -56 4 -46 -13 4 -6 0 -9 -11
-7 -14 2 -18 -2 -16 -16 3 -17 2 -18 -13 -6 -9 7 -15 9 -14 4 1 -5 0 -12 -1
-16 -1 -5 -3 -11 -4 -15 -1 -5 -7 -24 -14 -43 -6 -19 -14 -46 -16 -60 -3 -14
-5 -26 -7 -27 -1 -2 -3 -7 -4 -13 -1 -5 -3 -11 -5 -12 -3 -5 -12 -43 -13 -60
-1 -10 -4 -18 -7 -18 -4 0 -12 -24 -19 -52 -12 -51 -25 -94 -42 -148 -4 -14
-11 -39 -14 -57 l-6 -31 63 -15 c99 -24 205 -52 308 -82 103 -29 261 -71 325
-86 22 -5 51 -14 65 -19 14 -5 39 -12 57 -15 18 -3 44 -10 58 -15 15 -6 30
-10 34 -10 7 0 65 216 75 275 1 6 5 15 8 20 4 6 3 17 -3 25 -5 8 -9 20 -9 25
0 6 4 4 9 -4 7 -11 12 -3 21 29 6 24 13 55 15 69 2 14 4 26 5 26 1 0 3 7 5 15
2 8 7 26 10 40 11 41 12 80 3 80 -4 0 -8 -7 -8 -15 0 -8 -4 -15 -10 -15 -5 0
-10 6 -10 14 0 8 5 18 10 21 6 3 10 14 9 23 0 12 -3 11 -9 -5 -5 -13 -13 -23
-17 -24 -4 0 -16 -2 -25 -4 -10 -2 -18 -1 -18 2 0 13 22 43 32 43 7 0 6 -5 -2
-15 -7 -9 -8 -15 -2 -15 17 0 23 30 7 36 -8 4 -12 10 -9 15 3 5 -2 6 -11 2
-10 -3 -12 -8 -7 -12 7 -4 5 -13 -4 -25 -16 -23 -16 -23 -18 26 0 20 -4 39 -7
43 -4 3 -5 -10 -3 -30 3 -31 1 -35 -11 -25 -8 7 -15 9 -15 5 0 -4 10 -15 23
-26 12 -10 17 -18 11 -19 -7 0 -22 9 -35 20 -24 20 -24 20 -5 35 11 8 15 15 9
15 -18 0 -34 -27 -26 -46 6 -17 5 -17 -10 -5 -16 13 -16 16 -2 37 9 13 14 25
13 25 -13 6 -46 4 -42 -2 2 -4 12 -5 20 -2 14 5 14 3 2 -16 -14 -23 -11 -24
-46 26 -11 16 -11 16 -2 -4 12 -26 13 -43 3 -42 -20 3 -34 -2 -28 -11 3 -6 -1
-7 -9 -4 -13 5 -12 9 7 24 19 16 20 21 8 32 -12 11 -13 10 -8 -4 3 -9 3 -18 1
-21 -7 -7 -51 36 -47 45 2 4 -3 5 -12 2 -10 -4 -15 -2 -13 6 2 7 -6 14 -16 16
-27 4 -39 -5 -26 -21 8 -10 5 -13 -15 -11 -19 1 -23 5 -19 20 4 12 2 16 -5 12
-6 -4 -11 -15 -11 -24 0 -15 -2 -15 -10 -2 -8 13 -10 13 -10 -1 0 -9 -9 -24
-20 -34 -11 -10 -20 -13 -20 -8 0 6 7 16 15 23 20 16 19 30 -1 30 -9 0 -14 6
-11 13 8 20 -8 40 -35 44 -17 2 -19 1 -8 -6 8 -5 17 -8 21 -5 14 8 17 -25 4
-36 -12 -10 -16 -8 -23 10 -8 20 -9 21 -15 6 -7 -17 -27 -13 -27 5 0 6 5 7 12
3 8 -5 9 -2 5 9 -4 10 0 20 11 26 9 6 11 11 5 11 -7 0 -20 -11 -29 -25 -13
-20 -14 -28 -4 -39 6 -8 18 -12 26 -9 10 4 12 0 8 -11 -5 -12 -10 -13 -26 -5
-10 6 -22 17 -25 25 -3 7 -9 11 -14 8 -5 -3 -9 0 -9 5 0 6 3 11 8 11 4 0 13 9
20 21 10 16 10 19 1 13 -9 -5 -10 -2 -6 10 4 11 3 15 -4 11 -6 -4 -8 -14 -5
-22 4 -9 1 -13 -6 -11 -7 3 -13 10 -13 17 0 6 -6 16 -14 20 -8 5 -10 14 -6 22
7 12 6 12 -6 1 -12 -11 -11 -15 5 -28 11 -8 16 -14 12 -14 -5 0 -3 -7 4 -15 6
-8 8 -20 4 -26 -4 -7 1 -18 11 -26 16 -11 17 -13 3 -13 -20 0 -33 18 -33 45 0
14 -6 19 -19 17 -17 -3 -18 -2 -7 12 8 9 12 16 10 17 -43 8 -53 8 -39 -1 8 -5
15 -15 15 -22 0 -7 8 -12 18 -12 9 1 17 -2 17 -7 0 -5 -5 -9 -11 -9 -5 0 -7
-4 -4 -10 3 -5 2 -10 -3 -10 -5 0 -17 15 -26 33 -10 20 -16 26 -16 14 0 -12
-4 -16 -12 -11 -9 5 -8 2 1 -9 8 -10 11 -20 8 -23 -3 -3 -13 6 -22 20 -11 16
-22 23 -33 19 -9 -3 -14 -2 -9 2 4 5 0 17 -10 27 -22 24 -8 23 24 -2 29 -23
43 -25 43 -8 0 6 -3 9 -6 5 -4 -3 -27 8 -53 25 -25 18 -40 24 -32 15z m-14
-32 c0 -15 6 -19 23 -18 13 2 21 -1 17 -6 -3 -5 -1 -12 5 -16 6 -4 8 -10 5
-15 -3 -5 -1 -12 5 -15 8 -5 7 -11 -1 -21 -13 -16 2 -19 18 -3 12 12 47 -17
38 -31 -3 -5 4 -8 15 -7 29 2 25 10 -19 37 -21 14 -36 29 -33 34 3 5 0 6 -6 2
-8 -5 -10 -2 -6 8 5 13 10 11 26 -9 21 -27 43 -24 34 4 -5 12 -2 11 9 -3 8
-11 15 -24 15 -29 0 -5 6 -4 14 2 11 9 17 8 28 -8 9 -13 19 -17 28 -11 8 5 22
2 37 -7 20 -13 24 -13 28 0 5 12 18 14 59 8 5 0 1 -10 -8 -20 -29 -32 -8 -45
26 -16 29 25 47 28 33 6 -3 -6 -12 -8 -18 -4 -7 4 -6 -1 2 -10 9 -12 17 -14
26 -7 8 7 18 5 31 -6 10 -8 13 -12 5 -8 -10 5 -12 3 -6 -7 7 -11 6 -12 -6 -2
-16 13 -32 6 -37 -15 -1 -8 3 -12 10 -9 7 2 12 10 10 16 -1 7 8 5 23 -5 23
-15 25 -15 19 0 -3 9 -2 16 3 16 5 0 9 -15 8 -32 -1 -38 14 -80 26 -72 5 3 5
13 1 22 -5 9 -7 27 -6 40 0 12 -2 22 -6 22 -12 0 -5 33 8 38 7 2 9 -5 7 -17
-2 -12 1 -21 8 -21 8 0 8 -3 -2 -9 -8 -5 -9 -11 -3 -15 16 -10 24 11 13 32 -6
12 -7 23 0 30 5 7 6 10 3 7 -4 -3 -12 2 -18 11 -7 9 -18 12 -29 8 -19 -7 -23
-24 -5 -24 6 0 8 -3 4 -7 -4 -4 -16 3 -28 17 -11 14 -16 19 -12 11 5 -9 3 -12
-4 -7 -19 11 -14 28 6 22 9 -3 24 -1 32 4 18 11 71 -19 69 -40 -3 -30 1 -38
17 -36 8 1 19 7 22 12 22 29 76 -3 66 -40 -4 -17 0 -22 17 -23 21 -2 21 -1 3
13 -11 9 -13 13 -7 9 9 -4 11 -1 7 9 -7 19 -5 20 37 2 19 -7 42 -12 52 -11 9
2 15 0 12 -5 -6 -10 24 -22 36 -14 5 3 9 0 9 -5 0 -6 -7 -11 -15 -11 -8 0 -15
-5 -15 -11 0 -5 4 -8 9 -5 11 7 9 -13 -2 -31 -5 -7 -5 -17 -2 -23 4 -6 -1 -7
-11 -3 -14 5 -15 3 -5 -15 13 -24 1 -35 -25 -25 -13 5 -15 3 -9 -7 5 -9 4 -11
-4 -6 -17 11 -2 28 20 21 14 -5 17 -3 13 9 -9 23 -30 20 -48 -6 -9 -12 -16
-19 -16 -14 0 16 36 52 48 48 7 -2 10 2 6 12 -3 9 -10 13 -15 10 -5 -3 -6 3
-2 12 6 15 4 15 -21 -1 -14 -10 -31 -25 -35 -34 -5 -9 -13 -12 -17 -8 -4 4 2
14 14 23 12 8 22 20 22 26 0 6 -8 4 -18 -5 -10 -10 -22 -14 -25 -10 -4 3 -7 1
-7 -5 0 -7 -5 -12 -11 -12 -5 0 -7 5 -4 10 3 6 2 10 -3 10 -6 0 -12 -7 -16
-15 -3 -9 0 -15 9 -15 7 0 17 -5 21 -12 4 -6 3 -9 -2 -6 -5 3 -17 8 -27 11
-14 5 -16 11 -7 27 8 14 8 20 0 20 -6 0 -15 -10 -20 -22 -6 -17 -9 -18 -9 -6
-1 9 4 20 9 23 14 9 13 35 -2 35 -6 0 -8 -3 -5 -7 8 -8 -32 -53 -47 -53 -5 0
-1 6 10 14 11 8 15 18 10 23 -5 4 -11 2 -13 -4 -3 -7 -9 -13 -15 -13 -7 0 -7
5 1 13 11 14 5 27 -11 27 -5 0 -7 -4 -3 -9 3 -5 1 -12 -5 -16 -6 -4 -8 -10 -5
-15 3 -5 1 -12 -5 -15 -6 -4 -9 -1 -8 7 2 7 -4 12 -12 11 -8 -2 -21 6 -28 17
-15 25 -4 27 14 3 18 -24 18 -2 0 22 -12 16 -15 17 -34 3 -12 -8 -19 -18 -15
-21 3 -4 1 -7 -5 -7 -20 0 -13 17 14 35 14 9 23 19 20 22 -3 3 -13 0 -23 -8
-11 -9 -14 -10 -9 -1 4 6 2 12 -3 12 -6 0 -11 -7 -11 -15 0 -8 -4 -15 -10 -15
-5 0 -7 8 -4 18 4 12 0 10 -15 -7 -12 -13 -24 -21 -28 -17 -4 3 3 13 15 22 12
8 22 20 22 25 0 6 -12 1 -26 -10 -33 -26 -41 -26 -49 -1 -4 11 -11 18 -16 14
-6 -4 -6 -11 2 -20 19 -23 2 -16 -24 10 -17 17 -21 28 -14 35 17 17 4 21 -16
6 -18 -13 -18 -14 2 -32 23 -19 27 -33 9 -33 -6 0 -9 3 -5 6 3 3 -3 14 -14 25
-10 10 -16 25 -12 34 4 13 -2 12 -32 -5 -37 -21 -65 -21 -65 0 0 5 5 10 11 10
5 0 7 -5 3 -11 -4 -7 1 -10 11 -7 10 1 20 9 23 17 3 8 0 11 -5 8 -5 -3 -15 -2
-23 3 -19 11 -40 -6 -41 -34 -1 -18 -2 -18 -6 -3 -3 10 3 27 13 38 9 10 12 19
6 19 -6 0 -14 -4 -17 -10 -3 -5 -11 -10 -16 -10 -6 0 -7 5 -4 10 3 6 2 10 -3
10 -18 0 -21 -29 -4 -33 15 -4 15 -5 1 -6 -9 0 -23 7 -30 16 -8 9 -9 14 -3 10
7 -4 15 0 18 9 5 12 2 15 -9 10 -9 -3 -14 -2 -12 2 3 4 -1 12 -8 19 -10 10
-14 9 -19 -2 -3 -8 -1 -15 4 -15 6 0 10 -5 10 -11 0 -8 -6 -7 -17 2 -15 12
-16 12 -10 -3 3 -10 2 -18 -4 -18 -6 0 -9 8 -7 18 3 20 -9 42 -24 42 -6 0 -6
-6 2 -15 7 -9 10 -18 6 -22 -3 -3 -6 -1 -6 7 0 9 -3 10 -14 1 -10 -9 -15 -8
-19 4 -4 8 -12 13 -19 11 -7 -1 -10 -1 -6 1 4 2 4 11 1 19 -3 8 -1 14 5 14 5
0 9 10 8 22 0 13 5 23 12 24 6 1 17 2 23 3 8 1 7 7 -2 19 -13 15 -12 16 4 3
14 -11 17 -11 18 0 1 8 1 18 0 22 -1 5 9 7 21 5 15 -2 23 -10 23 -23z m25 -5
c0 -5 -4 -10 -10 -10 -5 0 -10 5 -10 10 0 6 5 10 10 10 6 0 10 -4 10 -10z
m440 -94 c-7 -7 -14 -6 -21 1 -9 9 -7 12 9 10 14 -1 18 -5 12 -11z m20 -40 c0
-3 -4 -8 -10 -11 -5 -3 -10 -1 -10 4 0 6 5 11 10 11 6 0 10 -2 10 -4z m-530
-10 c0 -2 -11 -6 -25 -8 -13 -3 -22 -1 -19 3 5 9 44 13 44 5z m61 -23 c13 -17
13 -17 -5 -3 -18 14 -19 13 -12 -5 5 -15 4 -17 -5 -8 -6 6 -8 16 -5 22 9 14
11 14 27 -6z m-136 -3 c-3 -5 -12 -10 -18 -10 -7 0 -6 4 3 10 19 12 23 12 15
0z m70 -8 c-3 -3 -11 0 -18 7 -9 10 -8 11 6 5 10 -3 15 -9 12 -12z m-30 -10
c-3 -3 -11 0 -18 7 -9 10 -8 11 6 5 10 -3 15 -9 12 -12z m65 -7 c11 -13 10
-14 -4 -9 -9 3 -16 10 -16 15 0 13 6 11 20 -6z m78 -10 c-3 -3 -9 2 -12 12 -6
14 -5 15 5 6 7 -7 10 -15 7 -18z m122 15 c0 -5 -7 -10 -15 -10 -9 0 -12 -6 -9
-17 5 -15 4 -16 -5 -3 -8 11 -7 18 6 28 20 15 23 15 23 2z m-145 -10 c4 -6 1
-9 -7 -8 -8 2 -13 -6 -12 -19 1 -13 -2 -20 -6 -18 -9 6 -8 25 3 43 10 15 14
15 22 2z m105 -32 c10 -21 10 -21 -3 -6 -11 14 -16 15 -26 5 -10 -9 -11 -8 -6
6 10 23 22 21 35 -5z m60 14 c0 -5 -7 -9 -15 -9 -8 0 -12 4 -9 9 3 4 9 8 15 8
5 0 9 -4 9 -8z m14 -37 c-4 -8 -8 -15 -10 -15 -2 0 -4 7 -4 15 0 8 4 15 10 15
5 0 7 -7 4 -15z m55 12 c-2 -1 -15 -11 -28 -22 l-24 -20 14 23 c8 12 20 22 28
22 8 0 12 -1 10 -3z m41 -12 c0 -2 -6 -5 -13 -8 -8 -3 -14 1 -14 8 0 7 6 11
14 8 7 -3 13 -6 13 -8z m-180 -1 c0 -8 -19 -13 -24 -6 -3 5 1 9 9 9 8 0 15 -2
15 -3z m50 -24 c0 -5 -5 -10 -11 -10 -5 0 -7 5 -4 10 3 6 8 10 11 10 2 0 4 -4
4 -10z m78 -10 c-7 -10 -14 -17 -17 -15 -4 4 18 35 25 35 2 0 -1 -9 -8 -20z
m96 8 c-5 -7 -2 -9 9 -5 11 4 14 2 10 -9 -4 -11 -9 -12 -19 -3 -12 10 -11 29
2 29 3 0 2 -5 -2 -12z m72 0 c4 -7 3 -8 -4 -4 -7 4 -12 0 -12 -10 0 -10 -3
-15 -6 -11 -7 6 2 37 10 37 3 0 8 -5 12 -12z m-196 -14 c0 -8 -19 -13 -24 -6
-3 5 1 9 9 9 8 0 15 -2 15 -3z m54 -2 c3 -5 -1 -9 -9 -9 -8 0 -12 4 -9 9 3 4
7 8 9 8 2 0 6 -4 9 -8z m149 -17 c-3 -9 -8 -14 -10 -11 -3 3 -2 9 2 15 9 16
15 13 8 -4z m248 -21 c-11 -15 -21 -24 -21 -20 0 12 33 57 37 52 3 -3 -4 -17
-16 -32z m-506 17 c3 -5 2 -12 -3 -15 -5 -3 -9 1 -9 9 0 17 3 19 12 6z m82
-16 c0 -8 -4 -12 -9 -9 -5 3 -6 10 -3 15 9 13 12 11 12 -6z m220 3 c0 -7 -11
-13 -24 -13 -29 0 -29 3 0 15 12 5 22 9 23 9 0 1 1 -5 1 -11z m-146 -15 c13
-16 12 -17 -3 -4 -17 13 -22 21 -14 21 2 0 10 -8 17 -17z m78 3 c9 -11 9 -16
-1 -22 -7 -4 -10 -4 -6 1 4 4 3 14 -3 22 -6 7 -9 13 -6 13 2 0 10 -6 16 -14z
m151 6 c0 -4 -10 -9 -22 -9 -18 -2 -20 0 -8 7 18 12 30 13 30 2z m74 -21 c3
-5 -1 -14 -8 -20 -10 -9 -16 -9 -21 -1 -4 6 -1 9 7 8 7 -2 12 3 11 10 -3 14 3
16 11 3z m-119 -10 c3 -5 2 -12 -3 -15 -5 -3 -9 1 -9 9 0 17 3 19 12 6z m-138
-16 c0 -8 -4 -12 -9 -9 -4 3 -8 9 -8 15 0 5 4 9 8 9 5 0 9 -7 9 -15z m217 -1
c3 -8 2 -12 -4 -9 -6 3 -10 10 -10 16 0 14 7 11 14 -7z m-104 -14 c8 -5 11
-10 5 -10 -5 0 -17 5 -25 10 -8 5 -10 10 -5 10 6 0 17 -5 25 -10z m257 4 c-3
-3 -12 -4 -19 -1 -8 3 -5 6 6 6 11 1 17 -2 13 -5z m-12 -16 c5 4 5 1 1 -6 -6
-10 -11 -10 -22 -1 -8 6 -14 14 -14 16 0 3 6 0 13 -6 8 -6 18 -7 22 -3z"/>
<path d="M1291 780 c-12 -11 -27 -18 -32 -15 -4 3 -6 -3 -4 -15 2 -11 -1 -22
-6 -26 -11 -7 7 -34 23 -34 6 0 4 8 -3 17 -8 10 -9 14 -2 10 6 -4 14 -3 18 3
3 5 11 10 17 10 6 0 8 -3 5 -7 -4 -3 -2 -12 4 -20 10 -11 14 -10 23 3 11 14
14 14 27 2 24 -24 56 -38 73 -32 12 5 13 9 3 19 -8 9 -16 10 -24 3 -14 -11
-36 -1 -27 13 3 5 0 16 -6 24 -10 12 -10 15 1 15 11 0 11 2 -1 9 -8 6 -17 8
-22 5 -4 -3 -13 4 -20 16 -16 24 -17 24 -47 0z m72 -25 c4 3 5 2 2 -2 -3 -3 0
-12 6 -20 15 -18 4 -17 -15 2 -13 13 -15 13 -21 -5 -7 -23 -22 -27 -22 -5 0 8
4 12 9 9 4 -3 8 0 8 5 0 6 -2 11 -4 11 -2 0 -12 3 -22 7 -11 4 -15 3 -11 -4 4
-6 1 -16 -7 -22 -11 -9 -15 -9 -19 1 -2 7 7 23 22 35 26 21 26 21 47 2 11 -10
24 -17 27 -14z"/>
<path d="M1310 776 c0 -2 8 -10 18 -17 15 -13 16 -12 3 4 -13 16 -21 21 -21
13z"/>
<path d="M1466 721 c-3 -5 6 -17 20 -26 20 -13 23 -19 13 -25 -7 -5 -17 -6
-23 -3 -5 4 -6 1 -2 -6 5 -7 11 -10 14 -7 3 3 11 1 19 -5 9 -9 17 -8 27 0 10
9 16 9 21 1 5 -8 10 -8 20 0 16 13 28 -1 19 -23 -7 -18 12 -32 22 -16 5 8 12
5 23 -10 15 -20 18 -20 39 -5 13 9 21 22 19 28 -3 7 1 13 8 13 7 0 11 -6 8
-14 -3 -7 -1 -13 5 -13 11 0 11 18 -2 38 -6 11 -11 10 -26 -3 -14 -12 -19 -13
-27 -3 -13 17 -13 48 0 48 6 0 7 3 4 6 -4 4 -17 0 -30 -9 -21 -13 -27 -14 -44
-2 -21 15 -50 5 -39 -14 5 -7 1 -9 -9 -5 -9 4 -14 9 -11 12 3 2 1 14 -5 24 -8
14 -14 17 -21 10 -12 -12 -40 -4 -32 9 3 5 3 9 0 9 -3 0 -7 -4 -10 -9z m49
-21 c-3 -5 -1 -10 6 -10 7 0 10 -3 6 -6 -9 -9 -28 6 -22 17 4 5 8 9 11 9 3 0
2 -4 -1 -10z m95 -45 c0 -5 5 -2 11 8 5 9 15 17 22 17 8 0 7 -4 -2 -9 -12 -8
-11 -13 10 -30 13 -11 29 -21 34 -21 6 -1 1 -5 -10 -10 -13 -5 -26 -3 -37 7
-9 8 -22 12 -29 7 -8 -4 -10 -3 -5 5 12 18 -14 44 -30 31 -11 -10 -13 0 -5 28
2 7 41 -24 41 -33z m-80 5 c0 -5 -2 -10 -4 -10 -3 0 -8 5 -11 10 -3 6 -1 10 4
10 6 0 11 -4 11 -10z"/>
<path d="M1634 631 c21 -23 26 -26 26 -11 0 5 -10 15 -22 21 -23 12 -23 12 -4
-10z"/>
<path d="M1940 619 c0 -5 -4 -8 -9 -5 -10 7 -34 -18 -25 -27 3 -3 1 -14 -5
-24 -6 -11 -11 -13 -11 -5 0 7 -4 11 -9 7 -5 -3 -13 0 -17 6 -5 8 -3 9 6 4 9
-6 11 -4 5 6 -8 12 -6 12 8 0 17 -14 23 -5 9 16 -5 8 -16 3 -37 -15 -17 -14
-24 -23 -16 -21 8 3 23 -3 33 -13 18 -18 39 -24 37 -10 -5 32 4 33 32 3 16
-18 33 -30 37 -26 4 3 -1 13 -12 20 -18 13 -18 14 2 12 11 0 18 -5 16 -9 -3
-4 1 -6 8 -5 7 2 10 2 6 0 -5 -3 -8 -9 -8 -15 0 -6 9 -3 19 6 13 12 21 14 26
6 5 -8 11 -8 21 1 11 9 16 6 25 -15 10 -20 15 -23 26 -15 10 9 10 15 2 25 -6
7 -8 18 -4 24 4 6 3 10 -2 9 -19 -3 -34 2 -29 10 4 5 -2 8 -11 7 -10 -2 -29 4
-42 13 -23 15 -24 15 -12 -6 12 -24 4 -34 -25 -28 -10 2 -23 4 -27 4 -5 1 -5
6 -2 11 4 6 1 18 -7 27 -11 15 -11 16 6 10 16 -6 17 -5 6 8 -15 18 -20 19 -20
4z m7 -51 c-1 -19 -2 -19 -19 2 -10 12 -15 26 -12 32 9 14 33 -11 31 -34z
m106 -3 c13 0 58 -47 52 -53 -3 -3 -13 4 -21 17 -12 17 -19 19 -29 11 -9 -8
-15 -8 -20 0 -3 6 -12 7 -18 3 -8 -5 -8 -2 0 9 7 8 9 19 5 23 -4 5 0 4 8 -1 8
-5 19 -9 23 -9z"/>
<path d="M1926 587 c3 -10 9 -15 12 -12 3 3 0 11 -7 18 -10 9 -11 8 -5 -6z"/>
<path d="M2036 548 c3 -5 10 -6 15 -3 13 9 11 12 -6 12 -8 0 -12 -4 -9 -9z"/>
<path d="M1786 587 c3 -10 9 -15 12 -12 3 3 0 11 -7 18 -10 9 -11 8 -5 -6z"/>
<path d="M1585 840 c-3 -6 1 -7 9 -4 18 7 21 14 7 14 -6 0 -13 -4 -16 -10z"/>
<path d="M1755 840 c3 -5 8 -10 11 -10 2 0 4 5 4 10 0 6 -5 10 -11 10 -5 0 -7
-4 -4 -10z"/>
<path d="M1548 833 c7 -3 16 -2 19 1 4 3 -2 6 -13 5 -11 0 -14 -3 -6 -6z"/>
<path d="M890 820 c0 -5 5 -10 11 -10 5 0 7 5 4 10 -3 6 -8 10 -11 10 -2 0 -4
-4 -4 -10z"/>
<path d="M1010 827 c0 -5 5 -17 11 -28 10 -20 11 -20 24 -2 8 10 15 22 15 27
0 6 -6 1 -14 -9 -13 -18 -13 -18 -24 1 -6 10 -12 15 -12 11z"/>
<path d="M1420 820 c18 -12 30 -13 30 -2 0 4 -10 9 -22 9 -18 2 -20 0 -8 -7z"/>
<path d="M1595 821 c-3 -5 -2 -12 3 -15 5 -3 9 1 9 9 0 17 -3 19 -12 6z"/>
<path d="M1693 813 c0 -9 4 -10 14 -2 7 6 13 12 13 14 0 1 -6 2 -13 2 -8 0
-14 -6 -14 -14z"/>
<path d="M1650 790 c-9 -6 -10 -10 -3 -10 6 0 15 5 18 10 8 12 4 12 -15 0z"/>
<path d="M1716 787 c3 -10 9 -15 12 -12 3 3 0 11 -7 18 -10 9 -11 8 -5 -6z"/>
<path d="M1070 780 c0 -5 5 -10 11 -10 5 0 7 5 4 10 -3 6 -8 10 -11 10 -2 0
-4 -4 -4 -10z"/>
<path d="M1680 780 c-9 -6 -10 -10 -3 -10 6 0 15 5 18 10 8 12 4 12 -15 0z"/>
<path d="M1916 773 c-6 -14 -5 -15 5 -6 7 7 10 15 7 18 -3 3 -9 -2 -12 -12z"/>
<path d="M1733 756 c-3 -6 -3 -8 2 -4 4 4 13 0 20 -9 9 -13 14 -13 20 -3 6 9
4 11 -5 5 -9 -6 -12 -4 -8 7 7 17 -19 21 -29 4z"/>
<path d="M1970 760 c0 -5 5 -10 11 -10 5 0 7 5 4 10 -3 6 -8 10 -11 10 -2 0
-4 -4 -4 -10z"/>
<path d="M1859 758 c-7 -24 -5 -40 7 -45 8 -3 11 -9 8 -14 -3 -5 2 -6 12 -2
15 5 14 7 -3 17 -11 6 -19 19 -18 29 3 13 -2 25 -6 15z"/>
<path d="M1705 740 c3 -5 1 -10 -6 -10 -7 0 -10 -2 -7 -5 8 -9 38 6 32 16 -3
5 -10 9 -15 9 -6 0 -7 -4 -4 -10z"/>
<path d="M1913 728 c-2 -18 0 -20 7 -8 12 18 13 30 2 30 -4 0 -9 -10 -9 -22z"/>
<path d="M2070 739 c0 -5 5 -7 10 -4 6 3 10 8 10 11 0 2 -4 4 -10 4 -5 0 -10
-5 -10 -11z"/>
<path d="M1937 709 c7 -7 15 -10 18 -7 3 3 -2 9 -12 12 -14 6 -15 5 -6 -5z"/>
<path d="M2115 700 c2 -27 10 -33 12 -10 1 11 -2 22 -6 24 -4 3 -7 -4 -6 -14z"/>
<path d="M1970 706 c0 -2 7 -7 16 -10 8 -3 12 -2 9 4 -6 10 -25 14 -25 6z"/>
<path d="M2146 682 c-2 -4 4 -8 14 -8 10 0 16 4 14 8 -3 4 -9 8 -14 8 -5 0
-11 -4 -14 -8z"/>
</g>
</svg>
